v 63.5 -50.49999619 -51.99999619
vn 0.4955394268 -0.6231039762 -0.605129838
v -63.49999619 50.5 -52.00000381
vn -0.4955393672 0.6231039762 -0.605129838
v 63.5 50.5 -51.99999619
vn 0.4955394268 0.6231039762 -0.605129838
v -63.49999619 -50.49999619 -52.00000381
vn -0.4955393672 -0.6231039762 -0.605129838
v -63.50000381 -50.49999619 52
vn -0.4955394268 -0.6231039762 0.605129838
v -63.50000381 50.5 52
vn -0.4955394268 0.6231039762 0.605129838
v 63.49999619 50.5 52.00000381
vn 0.4955393672 0.6231039762 0.605129838
v 63.49999619 -50.49999619 52.00000381
vn 0.4955393672 -0.6231039762 0.605129838
v -39.00000381 -26.00000191 -27.50000191
vn 0.4359693229 0.6539540291 0.6182838082
v 39 26.00000191 -27.50000191
vn -0.4359693825 -0.6539540291 0.6182838082
v -39.00000381 26.00000191 -27.50000191
vn 0.4359693229 -0.6539540291 0.6182838082
v 39 -26.00000191 -27.50000191
vn -0.4359693825 0.6539540291 0.6182838082
v -39.00000381 26.00000191 27.49999809
vn 0.4359693825 -0.6539540291 -0.6182838082
v -39.00000381 -26.00000191 27.49999809
vn 0.4359693825 0.6539540291 -0.6182838082
v 38.99999619 -26.00000191 27.50000191
vn -0.4359693229 0.6539540291 -0.6182838082
v 38.99999619 26.00000191 27.50000191
vn -0.4359693229 -0.6539540291 -0.6182838082
# mm_gid 0
g mmGroup0
f 1//1 2//2 3//3 
f 2//2 1//1 4//4 
f 2//2 5//5 6//6 
f 5//5 2//2 4//4 
f 5//5 7//7 6//6 
f 7//7 5//5 8//8 
f 7//7 2//2 6//6 
f 2//2 7//7 3//3 
f 1//1 7//7 8//8 
f 7//7 1//1 3//3 
f 1//1 5//5 4//4 
f 5//5 1//1 8//8 
f 9//9 10//10 11//11 
f 10//10 9//9 12//12 
f 9//9 13//13 14//14 
f 13//13 9//9 11//11 
f 15//15 13//13 16//16 
f 13//13 15//15 14//14 
f 10//10 15//15 16//16 
f 15//15 10//10 12//12 
f 15//15 9//9 14//14 
f 9//9 15//15 12//12 
f 10//10 13//13 11//11 
f 13//13 10//10 16//16 
