solid OpenSCAD_Model
  facet normal -0 0 1
    outer loop
      vertex -118.23 63.54 152.4
      vertex -98.23 -300.32 152.4
      vertex -98.23 63.54 152.4
    endloop
  endfacet
  facet normal 0 0 1
    outer loop
      vertex -98.23 -300.32 152.4
      vertex -118.23 63.54 152.4
      vertex -118.23 -300.32 152.4
    endloop
  endfacet
  facet normal 0 0 -1
    outer loop
      vertex -118.23 -300.32 -121.92
      vertex -98.23 63.54 -121.92
      vertex -98.23 -300.32 -121.92
    endloop
  endfacet
  facet normal -0 0 -1
    outer loop
      vertex -98.23 63.54 -121.92
      vertex -118.23 -300.32 -121.92
      vertex -118.23 63.54 -121.92
    endloop
  endfacet
  facet normal 0 -1 0
    outer loop
      vertex -118.23 -300.32 -121.92
      vertex -98.23 -300.32 152.4
      vertex -118.23 -300.32 152.4
    endloop
  endfacet
  facet normal 0 -1 -0
    outer loop
      vertex -98.23 -300.32 152.4
      vertex -118.23 -300.32 -121.92
      vertex -98.23 -300.32 -121.92
    endloop
  endfacet
  facet normal 1 -0 0
    outer loop
      vertex -98.23 -300.32 152.4
      vertex -98.23 63.54 -121.92
      vertex -98.23 63.54 152.4
    endloop
  endfacet
  facet normal 1 0 0
    outer loop
      vertex -98.23 63.54 -121.92
      vertex -98.23 -300.32 152.4
      vertex -98.23 -300.32 -121.92
    endloop
  endfacet
  facet normal 0 1 -0
    outer loop
      vertex -98.23 63.54 -121.92
      vertex -118.23 63.54 152.4
      vertex -98.23 63.54 152.4
    endloop
  endfacet
  facet normal 0 1 0
    outer loop
      vertex -118.23 63.54 152.4
      vertex -98.23 63.54 -121.92
      vertex -118.23 63.54 -121.92
    endloop
  endfacet
  facet normal -1 0 0
    outer loop
      vertex -118.23 -300.32 -121.92
      vertex -118.23 63.54 152.4
      vertex -118.23 63.54 -121.92
    endloop
  endfacet
  facet normal -1 -0 0
    outer loop
      vertex -118.23 63.54 152.4
      vertex -118.23 -300.32 -121.92
      vertex -118.23 -300.32 152.4
    endloop
  endfacet
endsolid OpenSCAD_Model
