# Alias OBJ Model File
# Exported from SketchUp, (c) 2000-2012 Trimble Navigation Limited
# File units = inches

mtllib test.mtl

g Mesh1 Model

usemtl FrontColor
v 45.2444 0 36.9414
vt -45.2444 -36.9414
vn 0 -1 -0
v -112.131 0 82.3164
vt 112.131 -82.3164
v -112.131 0 36.9414
vt 112.131 -36.9414
f 1/1/1 2/2/1 3/3/1

v 45.2444 0 82.3164
vt -45.2444 -82.3164
f 2/2/1 1/1/1 4/4/1

vt -36.9414 0
vn 1 0 -0
v 45.2444 47.0625 82.3164
vt -82.3164 47.0625
vt -82.3164 0
f 1/5/2 5/6/2 4/7/2

v 45.2444 47.0625 36.9414
vt -36.9414 47.0625
f 5/6/2 1/5/2 6/8/2

vt -45.2444 0
vn 0 0 -1
v -112.131 47.0625 36.9414
vt 112.131 47.0625
vt -45.2444 47.0625
f 1/9/3 7/10/3 6/11/3

vt 112.131 0
f 7/10/3 1/9/3 3/12/3

vt 82.3164 0
vn -1 0 -0
vt 36.9414 47.0625
vt 36.9414 0
f 2/13/4 7/14/4 3/15/4

v -112.131 47.0625 82.3164
vt 82.3164 47.0625
f 7/14/4 2/13/4 8/16/4

vt -112.131 0
vn 0 0 1
vt 45.2444 47.0625
vt -112.131 47.0625
f 2/17/5 5/18/5 8/19/5

vt 45.2444 0
f 5/18/5 2/17/5 4/20/5

vt 45.2444 -82.3164
vn 0 1 -0
vt -112.131 -36.9414
vt -112.131 -82.3164
f 5/21/6 7/22/6 8/23/6

vt 45.2444 -36.9414
f 7/22/6 5/21/6 6/24/6

g Mesh2 Model

v 90.9055 68.875 40.7984
vt -90.9055 -40.7984
v -67.8445 68.875 95.8609
vt 67.8445 -95.8609
v -67.8445 68.875 40.7984
vt 67.8445 -40.7984
f 9/25/1 10/26/1 11/27/1

v 90.9055 68.875 95.8609
vt -90.9055 -95.8609
f 10/26/1 9/25/1 12/28/1

vt -40.7984 68.875
v 90.9055 114.438 95.8609
vt -95.8609 114.438
vt -95.8609 68.875
f 9/29/2 13/30/2 12/31/2

v 90.9055 114.438 40.7984
vt -40.7984 114.438
f 13/30/2 9/29/2 14/32/2

vt -90.9055 68.875
v -67.8445 114.438 40.7984
vt 67.8445 114.438
vt -90.9055 114.438
f 9/33/3 15/34/3 14/35/3

vt 67.8445 68.875
f 15/34/3 9/33/3 11/36/3

vt 95.8609 68.875
vt 40.7984 114.438
vt 40.7984 68.875
f 10/37/4 15/38/4 11/39/4

v -67.8445 114.438 95.8609
vt 95.8609 114.438
f 15/38/4 10/37/4 16/40/4

vt -67.8445 68.875
vt 90.9055 114.438
vt -67.8445 114.438
f 10/41/5 13/42/5 16/43/5

vt 90.9055 68.875
f 13/42/5 10/41/5 12/44/5

vt 90.9055 -95.8609
vt -67.8445 -40.7984
vt -67.8445 -95.8609
f 13/45/6 15/46/6 16/47/6

vt 90.9055 -40.7984
f 15/46/6 13/45/6 14/48/6

