solid OpenSCAD_Model
  facet normal 0.809017 0.587785 0
    outer loop
      vertex 0.5 0 20
      vertex 0.154509 0.475528 0
      vertex 0.154509 0.475528 20
    endloop
  endfacet
  facet normal 0.809017 0.587785 0
    outer loop
      vertex 0.154509 0.475528 0
      vertex 0.5 0 20
      vertex 0.5 0 0
    endloop
  endfacet
  facet normal -0.309016 0.951057 0
    outer loop
      vertex 0.154509 0.475528 0
      vertex -0.404509 0.293893 20
      vertex 0.154509 0.475528 20
    endloop
  endfacet
  facet normal -0.309016 0.951057 0
    outer loop
      vertex -0.404509 0.293893 20
      vertex 0.154509 0.475528 0
      vertex -0.404509 0.293893 0
    endloop
  endfacet
  facet normal -1 0 0
    outer loop
      vertex -0.404509 -0.293893 0
      vertex -0.404509 0.293893 20
      vertex -0.404509 0.293893 0
    endloop
  endfacet
  facet normal -1 -0 0
    outer loop
      vertex -0.404509 0.293893 20
      vertex -0.404509 -0.293893 0
      vertex -0.404509 -0.293893 20
    endloop
  endfacet
  facet normal -0.309016 -0.951057 0
    outer loop
      vertex -0.404509 -0.293893 0
      vertex 0.154509 -0.475528 20
      vertex -0.404509 -0.293893 20
    endloop
  endfacet
  facet normal -0.309016 -0.951057 -0
    outer loop
      vertex 0.154509 -0.475528 20
      vertex -0.404509 -0.293893 0
      vertex 0.154509 -0.475528 0
    endloop
  endfacet
  facet normal 0.809017 -0.587785 0
    outer loop
      vertex 0.154509 -0.475528 20
      vertex 0.5 0 0
      vertex 0.5 0 20
    endloop
  endfacet
  facet normal 0.809017 -0.587785 0
    outer loop
      vertex 0.5 0 0
      vertex 0.154509 -0.475528 20
      vertex 0.154509 -0.475528 0
    endloop
  endfacet
  facet normal 0 0 -1
    outer loop
      vertex 0.154509 -0.475528 0
      vertex 0.154509 0.475528 0
      vertex 0.5 0 0
    endloop
  endfacet
  facet normal 0 0 -1
    outer loop
      vertex -0.404509 -0.293893 0
      vertex 0.154509 0.475528 0
      vertex 0.154509 -0.475528 0
    endloop
  endfacet
  facet normal 0 0 -1
    outer loop
      vertex 0.154509 0.475528 0
      vertex -0.404509 -0.293893 0
      vertex -0.404509 0.293893 0
    endloop
  endfacet
  facet normal 0 0 1
    outer loop
      vertex 0.154509 0.475528 20
      vertex 0.154509 -0.475528 20
      vertex 0.5 0 20
    endloop
  endfacet
  facet normal -0 0 1
    outer loop
      vertex -0.404509 0.293893 20
      vertex 0.154509 -0.475528 20
      vertex 0.154509 0.475528 20
    endloop
  endfacet
  facet normal 0 0 1
    outer loop
      vertex 0.154509 -0.475528 20
      vertex -0.404509 0.293893 20
      vertex -0.404509 -0.293893 20
    endloop
  endfacet
endsolid OpenSCAD_Model
