solid OpenSCAD_Model
  facet normal 0.809017 0.587786 0
    outer loop
      vertex 0.2 0 20
      vertex 0.0618034 0.190211 0
      vertex 0.0618034 0.190211 20
    endloop
  endfacet
  facet normal 0.809017 0.587786 0
    outer loop
      vertex 0.0618034 0.190211 0
      vertex 0.2 0 20
      vertex 0.2 0 0
    endloop
  endfacet
  facet normal -0.309017 0.951057 0
    outer loop
      vertex 0.0618034 0.190211 0
      vertex -0.161803 0.117557 20
      vertex 0.0618034 0.190211 20
    endloop
  endfacet
  facet normal -0.309017 0.951057 0
    outer loop
      vertex -0.161803 0.117557 20
      vertex 0.0618034 0.190211 0
      vertex -0.161803 0.117557 0
    endloop
  endfacet
  facet normal -1 0 0
    outer loop
      vertex -0.161803 -0.117557 0
      vertex -0.161803 0.117557 20
      vertex -0.161803 0.117557 0
    endloop
  endfacet
  facet normal -1 -0 0
    outer loop
      vertex -0.161803 0.117557 20
      vertex -0.161803 -0.117557 0
      vertex -0.161803 -0.117557 20
    endloop
  endfacet
  facet normal -0.309017 -0.951057 0
    outer loop
      vertex -0.161803 -0.117557 0
      vertex 0.0618034 -0.190211 20
      vertex -0.161803 -0.117557 20
    endloop
  endfacet
  facet normal -0.309017 -0.951057 -0
    outer loop
      vertex 0.0618034 -0.190211 20
      vertex -0.161803 -0.117557 0
      vertex 0.0618034 -0.190211 0
    endloop
  endfacet
  facet normal 0.809017 -0.587786 0
    outer loop
      vertex 0.0618034 -0.190211 20
      vertex 0.2 0 0
      vertex 0.2 0 20
    endloop
  endfacet
  facet normal 0.809017 -0.587786 0
    outer loop
      vertex 0.2 0 0
      vertex 0.0618034 -0.190211 20
      vertex 0.0618034 -0.190211 0
    endloop
  endfacet
  facet normal 0 0 -1
    outer loop
      vertex 0.0618034 -0.190211 0
      vertex 0.0618034 0.190211 0
      vertex 0.2 0 0
    endloop
  endfacet
  facet normal 0 0 -1
    outer loop
      vertex -0.161803 -0.117557 0
      vertex 0.0618034 0.190211 0
      vertex 0.0618034 -0.190211 0
    endloop
  endfacet
  facet normal 0 0 -1
    outer loop
      vertex 0.0618034 0.190211 0
      vertex -0.161803 -0.117557 0
      vertex -0.161803 0.117557 0
    endloop
  endfacet
  facet normal 0 0 1
    outer loop
      vertex 0.0618034 0.190211 20
      vertex 0.0618034 -0.190211 20
      vertex 0.2 0 20
    endloop
  endfacet
  facet normal -0 0 1
    outer loop
      vertex -0.161803 0.117557 20
      vertex 0.0618034 -0.190211 20
      vertex 0.0618034 0.190211 20
    endloop
  endfacet
  facet normal 0 0 1
    outer loop
      vertex 0.0618034 -0.190211 20
      vertex -0.161803 0.117557 20
      vertex -0.161803 -0.117557 20
    endloop
  endfacet
endsolid OpenSCAD_Model
