solid OpenSCAD_Model
  facet normal -0 0 1
    outer loop
      vertex 0 200 200
      vertex 0.1 0 200
      vertex 0.1 200 200
    endloop
  endfacet
  facet normal 0 0 1
    outer loop
      vertex 0.1 0 200
      vertex 0 200 200
      vertex 0 0 200
    endloop
  endfacet
  facet normal 0 0 -1
    outer loop
      vertex 0 0 0
      vertex 0.1 200 0
      vertex 0.1 0 0
    endloop
  endfacet
  facet normal -0 0 -1
    outer loop
      vertex 0.1 200 0
      vertex 0 0 0
      vertex 0 200 0
    endloop
  endfacet
  facet normal 0 -1 0
    outer loop
      vertex 0 0 0
      vertex 0.1 0 200
      vertex 0 0 200
    endloop
  endfacet
  facet normal 0 -1 -0
    outer loop
      vertex 0.1 0 200
      vertex 0 0 0
      vertex 0.1 0 0
    endloop
  endfacet
  facet normal 1 -0 0
    outer loop
      vertex 0.1 0 200
      vertex 0.1 200 0
      vertex 0.1 200 200
    endloop
  endfacet
  facet normal 1 0 0
    outer loop
      vertex 0.1 200 0
      vertex 0.1 0 200
      vertex 0.1 0 0
    endloop
  endfacet
  facet normal 0 1 -0
    outer loop
      vertex 0.1 200 0
      vertex 0 200 200
      vertex 0.1 200 200
    endloop
  endfacet
  facet normal 0 1 0
    outer loop
      vertex 0 200 200
      vertex 0.1 200 0
      vertex 0 200 0
    endloop
  endfacet
  facet normal -1 0 0
    outer loop
      vertex 0 0 0
      vertex 0 200 200
      vertex 0 200 0
    endloop
  endfacet
  facet normal -1 -0 0
    outer loop
      vertex 0 200 200
      vertex 0 0 0
      vertex 0 0 200
    endloop
  endfacet
endsolid OpenSCAD_Model
