solid STL generated by MeshLab
  facet normal -2.544481e-02  3.415807e-01 -9.395079e-01
    outer loop
      vertex  -5.646355e+00  1.390875e+02  3.599289e+02
      vertex   2.036088e+02  1.265817e+02  3.497148e+02
      vertex  -6.167035e+00  9.186698e+01  3.427748e+02
    endloop
  endfacet
  facet normal  2.457136e-03  1.817368e-01 -9.833441e-01
    outer loop
      vertex  -6.167035e+00  9.186698e+01  3.427748e+02
      vertex   2.036088e+02  1.265817e+02  3.497148e+02
      vertex   2.031441e+02  8.925450e+01  3.428150e+02
    endloop
  endfacet
  facet normal -7.321431e-03 -5.989105e-01 -8.007826e-01
    outer loop
      vertex  -6.167035e+00  9.186698e+01  3.427748e+02
      vertex   2.031441e+02  8.925450e+01  3.428150e+02
      vertex  -6.381225e+00  7.165057e+01  3.578968e+02
    endloop
  endfacet
  facet normal  1.800996e-03 -6.628839e-01 -7.487199e-01
    outer loop
      vertex  -6.381225e+00  7.165057e+01  3.578968e+02
      vertex   2.031441e+02  8.925450e+01  3.428150e+02
      vertex   2.028315e+02  6.453912e+01  3.646962e+02
    endloop
  endfacet
  facet normal  3.576316e-02  9.190313e-01 -3.925591e-01
    outer loop
      vertex   2.036088e+02  1.265817e+02  3.497148e+02
      vertex  -5.646355e+00  1.390875e+02  3.599289e+02
      vertex   2.037593e+02  1.390981e+02  3.790311e+02
    endloop
  endfacet
  facet normal  7.451660e-04 -1.725881e-03  9.999982e-01
    outer loop
      vertex   2.035837e+02  1.254840e+02  4.089784e+02
      vertex  -5.729887e+00  1.296580e+02  4.091416e+02
      vertex   2.029588e+02  7.542092e+01  4.088925e+02
    endloop
  endfacet
  facet normal -2.809662e-02 -1.126697e-01  9.932351e-01
    outer loop
      vertex   2.029588e+02  7.542092e+01  4.088925e+02
      vertex  -5.729887e+00  1.296580e+02  4.091416e+02
      vertex  -6.330362e+00  7.372892e+01  4.027802e+02
    endloop
  endfacet
  facet normal  8.679376e-04 -9.710013e-01  2.390728e-01
    outer loop
      vertex   2.029588e+02  7.542092e+01  4.088925e+02
      vertex  -6.330362e+00  7.372892e+01  4.027802e+02
      vertex   2.028315e+02  6.453912e+01  3.646962e+02
    endloop
  endfacet
  facet normal -3.543735e-02 -9.983003e-01  4.626707e-02
    outer loop
      vertex   2.028315e+02  6.453912e+01  3.646962e+02
      vertex  -6.330362e+00  7.372892e+01  4.027802e+02
      vertex  -6.381225e+00  7.165057e+01  3.578968e+02
    endloop
  endfacet
  facet normal -1.721092e-02  9.819939e-01  1.881272e-01
    outer loop
      vertex  -5.646355e+00  1.390875e+02  3.599289e+02
      vertex  -5.729887e+00  1.296580e+02  4.091416e+02
      vertex   2.037593e+02  1.390981e+02  3.790311e+02
    endloop
  endfacet
  facet normal  1.847232e-02  9.101511e-01  4.138643e-01
    outer loop
      vertex   2.037593e+02  1.390981e+02  3.790311e+02
      vertex  -5.729887e+00  1.296580e+02  4.091416e+02
      vertex   2.035837e+02  1.254840e+02  4.089784e+02
    endloop
  endfacet
  facet normal -7.535125e-03  3.179702e-01  9.480708e-01
    outer loop
      vertex   1.907403e+02  1.124050e+02  3.346395e+02
      vertex   2.959301e-01  1.100356e+02  3.339206e+02
      vertex   1.901514e+02  6.546809e+01  3.503768e+02
    endloop
  endfacet
  facet normal  1.862196e-02  4.151750e-01  9.095509e-01
    outer loop
      vertex   1.901514e+02  6.546809e+01  3.503768e+02
      vertex   2.959301e-01  1.100356e+02  3.339206e+02
      vertex  -2.669371e-01  6.525220e+01  3.543740e+02
    endloop
  endfacet
  facet normal -8.836394e-03 -6.970045e-01  7.170122e-01
    outer loop
      vertex   1.911395e+02  1.448665e+02  3.662001e+02
      vertex   7.541648e-01  1.472427e+02  3.661637e+02
      vertex   1.907403e+02  1.124050e+02  3.346395e+02
    endloop
  endfacet
  facet normal  5.295735e-03 -6.549230e-01  7.556772e-01
    outer loop
      vertex   1.907403e+02  1.124050e+02  3.346395e+02
      vertex   7.541648e-01  1.472427e+02  3.661637e+02
      vertex   2.959301e-01  1.100356e+02  3.339206e+02
    endloop
  endfacet
  facet normal -4.448830e-03  5.178223e-01 -8.554766e-01
    outer loop
      vertex   1.901089e+02  6.287615e+01  4.036468e+02
      vertex  -2.448271e-01  6.784457e+01  4.076441e+02
      vertex   1.905043e+02  9.485757e+01  4.230032e+02
    endloop
  endfacet
  facet normal  7.061236e-03  4.561140e-01 -8.898933e-01
    outer loop
      vertex   1.905043e+02  9.485757e+01  4.230032e+02
      vertex  -2.448271e-01  6.784457e+01  4.076441e+02
      vertex   1.290807e-01  9.804120e+01  4.231244e+02
    endloop
  endfacet
  facet normal -4.891525e-03 -2.557142e-01 -9.667400e-01
    outer loop
      vertex   1.905043e+02  9.485757e+01  4.230032e+02
      vertex   1.290807e-01  9.804120e+01  4.231244e+02
      vertex   1.909572e+02  1.309961e+02  4.134418e+02
    endloop
  endfacet
  facet normal  5.965129e-03 -3.135325e-01 -9.495587e-01
    outer loop
      vertex   1.909572e+02  1.309961e+02  4.134418e+02
      vertex   1.290807e-01  9.804120e+01  4.231244e+02
      vertex   6.177476e-01  1.369959e+02  4.102651e+02
    endloop
  endfacet
  facet normal  2.504133e-02  9.985043e-01 -4.860201e-02
    outer loop
      vertex  -2.448271e-01  6.784457e+01  4.076441e+02
      vertex   1.901089e+02  6.287615e+01  4.036468e+02
      vertex  -2.669371e-01  6.525220e+01  3.543740e+02
    endloop
  endfacet
  facet normal -1.122609e-04  9.988183e-01  4.859918e-02
    outer loop
      vertex  -2.669371e-01  6.525220e+01  3.543740e+02
      vertex   1.901089e+02  6.287615e+01  4.036468e+02
      vertex   1.901514e+02  6.546809e+01  3.503768e+02
    endloop
  endfacet
  facet normal -2.553222e-02 -9.591591e-01 -2.817124e-01
    outer loop
      vertex   1.909572e+02  1.309961e+02  4.134418e+02
      vertex   6.177476e-01  1.369959e+02  4.102651e+02
      vertex   1.911395e+02  1.448665e+02  3.662001e+02
    endloop
  endfacet
  facet normal -1.211283e-02 -9.739736e-01 -2.263377e-01
    outer loop
      vertex   1.911395e+02  1.448665e+02  3.662001e+02
      vertex   6.177476e-01  1.369959e+02  4.102651e+02
      vertex   7.541648e-01  1.472427e+02  3.661637e+02
    endloop
  endfacet
  facet normal -9.894901e-01 -1.401437e-01 -3.562277e-02
    outer loop
      vertex  -4.826725e+00  1.942981e+02  3.360629e+02
      vertex   7.541648e-01  1.472427e+02  3.661637e+02
      vertex   6.177476e-01  1.369959e+02  4.102651e+02
    endloop
  endfacet
  facet normal  9.926504e-01 -4.898233e-02 -1.106606e-01
    outer loop
      vertex  -4.826725e+00  1.942981e+02  3.360629e+02
      vertex   6.177476e-01  1.369959e+02  4.102651e+02
      vertex   1.290807e-01  9.804120e+01  4.231244e+02
    endloop
  endfacet
  facet normal -9.889778e-01  7.705978e-02 -1.264296e-01
    outer loop
      vertex   1.290807e-01  9.804120e+01  4.231244e+02
      vertex  -2.448271e-01  6.784457e+01  4.076441e+02
      vertex  -4.410719e+00  3.882629e+00  4.012460e+02
    endloop
  endfacet
  facet normal -9.978639e-01  6.526796e-02 -2.762064e-03
    outer loop
      vertex  -4.410719e+00  3.882629e+00  4.012460e+02
      vertex  -2.448271e-01  6.784457e+01  4.076441e+02
      vertex  -2.669371e-01  6.525220e+01  3.543740e+02
    endloop
  endfacet
  facet normal -9.961656e-01  8.451996e-02  2.259475e-02
    outer loop
      vertex  -4.410719e+00  3.882629e+00  4.012460e+02
      vertex  -2.669371e-01  6.525220e+01  3.543740e+02
      vertex  -6.024881e+00  1.090548e+01  3.038099e+02
    endloop
  endfacet
  facet normal -9.968113e-01  4.317652e-02  6.710457e-02
    outer loop
      vertex  -6.024881e+00  1.090548e+01  3.038099e+02
      vertex  -2.669371e-01  6.525220e+01  3.543740e+02
      vertex   2.959301e-01  1.100356e+02  3.339206e+02
    endloop
  endfacet
  facet normal -9.107913e-01 -6.573384e-02  4.076007e-01
    outer loop
      vertex  -6.024881e+00  1.090548e+01  3.038099e+02
      vertex   2.959301e-01  1.100356e+02  3.339206e+02
      vertex  -4.826725e+00  1.942981e+02  3.360629e+02
    endloop
  endfacet
  facet normal -9.942874e-01 -6.264390e-02  8.641900e-02
    outer loop
      vertex  -4.826725e+00  1.942981e+02  3.360629e+02
      vertex   2.959301e-01  1.100356e+02  3.339206e+02
      vertex   7.541648e-01  1.472427e+02  3.661637e+02
    endloop
  endfacet
  facet normal -9.928064e-01  7.037473e-02 -9.686463e-02
    outer loop
      vertex  -4.410719e+00  3.882629e+00  4.012460e+02
      vertex  -5.570289e+00  1.088336e+02  4.893806e+02
      vertex   1.290807e-01  9.804120e+01  4.231244e+02
    endloop
  endfacet
  facet normal -9.914720e-01 -1.117250e-01 -6.708775e-02
    outer loop
      vertex   1.290807e-01  9.804120e+01  4.231244e+02
      vertex  -5.570289e+00  1.088336e+02  4.893806e+02
      vertex  -4.826725e+00  1.942981e+02  3.360629e+02
    endloop
  endfacet
  facet normal  9.801087e-01 -1.362766e-01  1.442762e-01
    outer loop
      vertex   1.955901e+02  1.982409e+02  3.863807e+02
      vertex   1.911395e+02  1.448665e+02  3.662001e+02
      vertex   2.000860e+02  1.285340e+02  2.899969e+02
    endloop
  endfacet
  facet normal  9.765950e-01 -1.559873e-01  1.480882e-01
    outer loop
      vertex   2.000860e+02  1.285340e+02  2.899969e+02
      vertex   1.911395e+02  1.448665e+02  3.662001e+02
      vertex   1.907403e+02  1.124050e+02  3.346395e+02
    endloop
  endfacet
  facet normal  9.798063e-01 -1.610314e-02  1.992995e-01
    outer loop
      vertex   2.000860e+02  1.285340e+02  2.899969e+02
      vertex   1.907403e+02  1.124050e+02  3.346395e+02
      vertex   1.944000e+02  4.060584e+01  3.108464e+02
    endloop
  endfacet
  facet normal  9.953064e-01  1.930718e-02  9.482790e-02
    outer loop
      vertex   1.944000e+02  4.060584e+01  3.108464e+02
      vertex   1.907403e+02  1.124050e+02  3.346395e+02
      vertex   1.901514e+02  6.546809e+01  3.503768e+02
    endloop
  endfacet
  facet normal  9.859246e-01  1.671885e-01  8.112311e-04
    outer loop
      vertex   1.944000e+02  4.060584e+01  3.108464e+02
      vertex   1.901514e+02  6.546809e+01  3.503768e+02
      vertex   1.995141e+02  9.949876e+00  4.134450e+02
    endloop
  endfacet
  facet normal  9.842311e-01  1.766383e-01  9.381214e-03
    outer loop
      vertex   1.995141e+02  9.949876e+00  4.134450e+02
      vertex   1.901514e+02  6.546809e+01  3.503768e+02
      vertex   1.901089e+02  6.287615e+01  4.036468e+02
    endloop
  endfacet
  facet normal  9.759160e-01  1.429118e-01 -1.648159e-01
    outer loop
      vertex   1.995141e+02  9.949876e+00  4.134450e+02
      vertex   1.901089e+02  6.287615e+01  4.036468e+02
      vertex   1.956354e+02  1.083773e+02  4.758247e+02
    endloop
  endfacet
  facet normal  9.923955e-01  5.452139e-02 -1.103562e-01
    outer loop
      vertex   1.956354e+02  1.083773e+02  4.758247e+02
      vertex   1.901089e+02  6.287615e+01  4.036468e+02
      vertex   1.905043e+02  9.485757e+01  4.230032e+02
    endloop
  endfacet
  facet normal  9.955194e-01 -3.564857e-02 -8.758058e-02
    outer loop
      vertex   1.956354e+02  1.083773e+02  4.758247e+02
      vertex   1.905043e+02  9.485757e+01  4.230032e+02
      vertex   1.909572e+02  1.309961e+02  4.134418e+02
    endloop
  endfacet
  facet normal  9.866920e-01 -1.144565e-01 -1.154929e-01
    outer loop
      vertex   1.956354e+02  1.083773e+02  4.758247e+02
      vertex   1.909572e+02  1.309961e+02  4.134418e+02
      vertex   1.955901e+02  1.982409e+02  3.863807e+02
    endloop
  endfacet
  facet normal  9.969260e-01 -7.613155e-02 -1.850630e-02
    outer loop
      vertex   1.955901e+02  1.982409e+02  3.863807e+02
      vertex   1.909572e+02  1.309961e+02  4.134418e+02
      vertex   1.911395e+02  1.448665e+02  3.662001e+02
    endloop
  endfacet
  facet normal -9.895965e-01 -1.286976e-01 -6.430969e-02
    outer loop
      vertex   1.955901e+02  1.982409e+02  3.863807e+02
      vertex   2.037593e+02  1.390981e+02  3.790311e+02
      vertex   2.035837e+02  1.254840e+02  4.089784e+02
    endloop
  endfacet
  facet normal -9.754634e-01 -1.555596e-01 -1.557957e-01
    outer loop
      vertex   1.955901e+02  1.982409e+02  3.863807e+02
      vertex   2.035837e+02  1.254840e+02  4.089784e+02
      vertex   1.956354e+02  1.083773e+02  4.758247e+02
    endloop
  endfacet
  facet normal -9.932991e-01  1.259508e-02 -1.148836e-01
    outer loop
      vertex   1.956354e+02  1.083773e+02  4.758247e+02
      vertex   2.035837e+02  1.254840e+02  4.089784e+02
      vertex   2.029588e+02  7.542092e+01  4.088925e+02
    endloop
  endfacet
  facet normal -9.906268e-01  4.310862e-02 -1.296156e-01
    outer loop
      vertex   1.956354e+02  1.083773e+02  4.758247e+02
      vertex   2.029588e+02  7.542092e+01  4.088925e+02
      vertex   1.995141e+02  9.949876e+00  4.134450e+02
    endloop
  endfacet
  facet normal -9.986057e-01  5.185349e-02 -9.890711e-03
    outer loop
      vertex   1.995141e+02  9.949876e+00  4.134450e+02
      vertex   2.029588e+02  7.542092e+01  4.088925e+02
      vertex   2.028315e+02  6.453912e+01  3.646962e+02
    endloop
  endfacet
  facet normal -9.857008e-01  1.415462e-01  9.142604e-02
    outer loop
      vertex   1.995141e+02  9.949876e+00  4.134450e+02
      vertex   2.028315e+02  6.453912e+01  3.646962e+02
      vertex   1.944000e+02  4.060584e+01  3.108464e+02
    endloop
  endfacet
  facet normal -9.884440e-01  1.072995e-01  1.070763e-01
    outer loop
      vertex   1.944000e+02  4.060584e+01  3.108464e+02
      vertex   2.028315e+02  6.453912e+01  3.646962e+02
      vertex   2.031441e+02  8.925450e+01  3.428150e+02
    endloop
  endfacet
  facet normal -9.874320e-01  9.398333e-02  1.270637e-01
    outer loop
      vertex   1.944000e+02  4.060584e+01  3.108464e+02
      vertex   2.031441e+02  8.925450e+01  3.428150e+02
      vertex   2.000860e+02  1.285340e+02  2.899969e+02
    endloop
  endfacet
  facet normal -9.982605e-01  1.532381e-03  5.893711e-02
    outer loop
      vertex   2.000860e+02  1.285340e+02  2.899969e+02
      vertex   2.031441e+02  8.925450e+01  3.428150e+02
      vertex   2.036088e+02  1.265817e+02  3.497148e+02
    endloop
  endfacet
  facet normal -9.889410e-01 -1.381998e-01  5.381902e-02
    outer loop
      vertex   2.000860e+02  1.285340e+02  2.899969e+02
      vertex   2.036088e+02  1.265817e+02  3.497148e+02
      vertex   1.955901e+02  1.982409e+02  3.863807e+02
    endloop
  endfacet
  facet normal -9.872208e-01 -1.446665e-01  6.683355e-02
    outer loop
      vertex   1.955901e+02  1.982409e+02  3.863807e+02
      vertex   2.036088e+02  1.265817e+02  3.497148e+02
      vertex   2.037593e+02  1.390981e+02  3.790311e+02
    endloop
  endfacet
  facet normal -9.999387e-01  1.105874e-02  6.210588e-04
    outer loop
      vertex  -6.330362e+00  7.372892e+01  4.027802e+02
      vertex  -6.167035e+00  9.186698e+01  3.427748e+02
      vertex  -6.381225e+00  7.165057e+01  3.578968e+02
    endloop
  endfacet
  facet normal -9.999138e-01 -2.660106e-05 -1.312399e-02
    outer loop
      vertex  -5.570289e+00  1.088336e+02  4.893806e+02
      vertex  -4.410719e+00  3.882629e+00  4.012460e+02
      vertex  -5.496338e+00  1.656006e-01  4.839666e+02
    endloop
  endfacet
  facet normal -9.999429e-01  1.067820e-02  5.060203e-04
    outer loop
      vertex  -5.729887e+00  1.296580e+02  4.091416e+02
      vertex  -6.167035e+00  9.186698e+01  3.427748e+02
      vertex  -6.330362e+00  7.372892e+01  4.027802e+02
    endloop
  endfacet
  facet normal -9.999592e-01  5.238595e-03  7.360160e-03
    outer loop
      vertex  -6.441549e+00  6.988161e+01  2.052247e+02
      vertex  -6.024881e+00  1.090548e+01  3.038099e+02
      vertex  -4.826725e+00  1.942981e+02  3.360629e+02
    endloop
  endfacet
  facet normal -9.998539e-01  1.672045e-02 -3.559448e-03
    outer loop
      vertex  -6.441549e+00  6.988161e+01  2.052247e+02
      vertex  -4.826725e+00  1.942981e+02  3.360629e+02
      vertex  -3.441650e+00  2.701197e+02  3.031642e+02
    endloop
  endfacet
  facet normal -9.999095e-01  1.207477e-02  5.940395e-03
    outer loop
      vertex  -3.441650e+00  2.701197e+02  3.031642e+02
      vertex  -4.568167e+00  2.458047e+02  1.629687e+02
      vertex  -6.441549e+00  6.988161e+01  2.052247e+02
    endloop
  endfacet
  facet normal -9.985263e-01  3.589987e-02  4.069916e-02
    outer loop
      vertex  -3.441650e+00  2.701197e+02  3.031642e+02
      vertex  -4.826725e+00  1.942981e+02  3.360629e+02
      vertex   3.498407e+00  2.918346e+02  4.542795e+02
    endloop
  endfacet
  facet normal -9.981975e-01  5.434852e-02  2.545462e-02
    outer loop
      vertex   3.498407e+00  2.918346e+02  4.542795e+02
      vertex  -4.826725e+00  1.942981e+02  3.360629e+02
      vertex  -5.570289e+00  1.088336e+02  4.893806e+02
    endloop
  endfacet
  facet normal -7.121706e-03  1.979923e-01 -9.801776e-01
    outer loop
      vertex  -3.133869e+00  3.707639e+02  3.432677e+02
      vertex   2.100882e+02  3.660409e+02  3.407645e+02
      vertex  -3.554921e+00  3.325545e+02  3.355526e+02
    endloop
  endfacet
  facet normal  8.923812e-04  1.482281e-01 -9.889528e-01
    outer loop
      vertex  -3.554921e+00  3.325545e+02  3.355526e+02
      vertex   2.100882e+02  3.660409e+02  3.407645e+02
      vertex   2.096302e+02  3.298851e+02  3.353449e+02
    endloop
  endfacet
  facet normal -8.426975e-03 -6.114233e-01 -7.912589e-01
    outer loop
      vertex  -3.554921e+00  3.325545e+02  3.355526e+02
      vertex   2.096302e+02  3.298851e+02  3.353449e+02
      vertex  -3.777244e+00  3.113293e+02  3.519562e+02
    endloop
  endfacet
  facet normal  1.632578e-03 -6.773463e-01 -7.356626e-01
    outer loop
      vertex  -3.777244e+00  3.113293e+02  3.519562e+02
      vertex   2.096302e+02  3.298851e+02  3.353449e+02
      vertex   2.093456e+02  3.053998e+02  3.578886e+02
    endloop
  endfacet
  facet normal -2.921314e-02 -9.982328e-01  5.174841e-02
    outer loop
      vertex  -3.777244e+00  3.113293e+02  3.519562e+02
      vertex   2.093456e+02  3.053998e+02  3.578886e+02
      vertex  -3.732491e+00  3.135154e+02  3.941515e+02
    endloop
  endfacet
  facet normal -1.223460e-02 -9.887041e-01  1.493805e-01
    outer loop
      vertex  -3.732491e+00  3.135154e+02  3.941515e+02
      vertex   2.093456e+02  3.053998e+02  3.578886e+02
      vertex   2.094489e+02  3.108460e+02  3.939438e+02
    endloop
  endfacet
  facet normal -6.023583e-03 -5.462387e-01  8.376079e-01
    outer loop
      vertex  -3.732491e+00  3.135154e+02  3.941515e+02
      vertex   2.094489e+02  3.108460e+02  3.939438e+02
      vertex  -3.467084e+00  3.370869e+02  4.095254e+02
    endloop
  endfacet
  facet normal  1.154812e-03 -5.036203e-01  8.639243e-01
    outer loop
      vertex  -3.467084e+00  3.370869e+02  4.095254e+02
      vertex   2.094489e+02  3.108460e+02  3.939438e+02
      vertex   2.098310e+02  3.400244e+02  4.109527e+02
    endloop
  endfacet
  facet normal -2.401861e-04  9.784220e-01 -2.066166e-01
    outer loop
      vertex  -3.008134e+00  3.801798e+02  3.878565e+02
      vertex   2.102985e+02  3.794527e+02  3.841653e+02
      vertex  -3.133869e+00  3.707639e+02  3.432677e+02
    endloop
  endfacet
  facet normal  1.769255e-02  9.552473e-01 -2.952788e-01
    outer loop
      vertex  -3.133869e+00  3.707639e+02  3.432677e+02
      vertex   2.102985e+02  3.794527e+02  3.841653e+02
      vertex   2.100882e+02  3.660409e+02  3.407645e+02
    endloop
  endfacet
  facet normal  1.622814e-02  5.617622e-01  8.271396e-01
    outer loop
      vertex   2.102985e+02  3.794527e+02  3.841653e+02
      vertex  -3.008134e+00  3.801798e+02  3.878565e+02
      vertex   2.098310e+02  3.400244e+02  4.109527e+02
    endloop
  endfacet
  facet normal -1.216573e-02  4.493125e-01  8.932918e-01
    outer loop
      vertex   2.098310e+02  3.400244e+02  4.109527e+02
      vertex  -3.008134e+00  3.801798e+02  3.878565e+02
      vertex  -3.467084e+00  3.370869e+02  4.095254e+02
    endloop
  endfacet
  facet normal  8.745681e-03 -3.627637e-01  9.318401e-01
    outer loop
      vertex   6.610333e+00  3.377148e+02  3.266873e+02
      vertex   1.970542e+02  3.400766e+02  3.258194e+02
      vertex   7.154658e+00  3.799055e+02  3.431070e+02
    endloop
  endfacet
  facet normal -1.736067e-02 -4.666003e-01  8.842980e-01
    outer loop
      vertex   7.154658e+00  3.799055e+02  3.431070e+02
      vertex   1.970542e+02  3.400766e+02  3.258194e+02
      vertex   1.975762e+02  3.801137e+02  3.469552e+02
    endloop
  endfacet
  facet normal  8.935280e-03  6.548038e-01  7.557461e-01
    outer loop
      vertex   6.175865e+00  3.005071e+02  3.589305e+02
      vertex   1.965610e+02  2.981231e+02  3.587451e+02
      vertex   6.610333e+00  3.377148e+02  3.266873e+02
    endloop
  endfacet
  facet normal -4.071691e-03  6.174084e-01  7.866323e-01
    outer loop
      vertex   6.610333e+00  3.377148e+02  3.266873e+02
      vertex   1.965610e+02  2.981231e+02  3.587451e+02
      vertex   1.970542e+02  3.400766e+02  3.258194e+02
    endloop
  endfacet
  facet normal  3.757592e-03 -5.178145e-01 -8.554847e-01
    outer loop
      vertex   7.239000e+00  3.824971e+02  3.963771e+02
      vertex   1.975956e+02  3.775209e+02  4.002252e+02
      vertex   6.857392e+00  3.505155e+02  4.157335e+02
    endloop
  endfacet
  facet normal -6.652758e-03 -4.622321e-01 -8.867340e-01
    outer loop
      vertex   6.857392e+00  3.505155e+02  4.157335e+02
      vertex   1.975956e+02  3.775209e+02  4.002252e+02
      vertex   1.972425e+02  3.481316e+02  4.155478e+02
    endloop
  endfacet
  facet normal  1.468887e-03  1.937301e-01 -9.810538e-01
    outer loop
      vertex   6.857392e+00  3.505155e+02  4.157335e+02
      vertex   1.972425e+02  3.481316e+02  4.155478e+02
      vertex   6.444020e+00  3.180006e+02  4.093121e+02
    endloop
  endfacet
  facet normal -8.813718e-03  2.558662e-01 -9.666721e-01
    outer loop
      vertex   6.444020e+00  3.180006e+02  4.093121e+02
      vertex   1.972425e+02  3.481316e+02  4.155478e+02
      vertex   1.967807e+02  3.119932e+02  4.059866e+02
    endloop
  endfacet
  facet normal -2.512005e-02 -9.985029e-01 -4.858968e-02
    outer loop
      vertex   1.975956e+02  3.775209e+02  4.002252e+02
      vertex   7.239000e+00  3.824971e+02  3.963771e+02
      vertex   1.975762e+02  3.801137e+02  3.469552e+02
    endloop
  endfacet
  facet normal  1.099995e-04 -9.988186e-01  4.859336e-02
    outer loop
      vertex   1.975762e+02  3.801137e+02  3.469552e+02
      vertex   7.239000e+00  3.824971e+02  3.963771e+02
      vertex   7.154658e+00  3.799055e+02  3.431070e+02
    endloop
  endfacet
  facet normal  2.407477e-02  9.443610e-01 -3.280283e-01
    outer loop
      vertex   6.444020e+00  3.180006e+02  4.093121e+02
      vertex   1.967807e+02  3.119932e+02  4.059866e+02
      vertex   6.175865e+00  3.005071e+02  3.589305e+02
    endloop
  endfacet
  facet normal  1.173934e-02  9.594194e-01 -2.817383e-01
    outer loop
      vertex   6.175865e+00  3.005071e+02  3.589305e+02
      vertex   1.967807e+02  3.119932e+02  4.059866e+02
      vertex   1.965610e+02  2.981231e+02  3.587451e+02
    endloop
  endfacet
  facet normal  9.059051e-01  4.143219e-01  8.759733e-02
    outer loop
      vertex   1.961642e+02  2.613901e+02  4.235766e+02
      vertex   2.086861e+02  2.555491e+02  3.217057e+02
      vertex   1.963837e+02  2.894104e+02  2.887751e+02
    endloop
  endfacet
  facet normal -9.237539e-01  3.526272e-02  3.813601e-01
    outer loop
      vertex   1.963837e+02  2.894104e+02  2.887751e+02
      vertex   2.086861e+02  2.555491e+02  3.217057e+02
      vertex   2.032800e+02  3.984133e+02  2.954006e+02
    endloop
  endfacet
  facet normal -9.999211e-01  1.252049e-02  9.758221e-04
    outer loop
      vertex   2.086861e+02  2.555491e+02  3.217057e+02
      vertex   2.093456e+02  3.053998e+02  3.578886e+02
      vertex   2.096302e+02  3.298851e+02  3.353449e+02
    endloop
  endfacet
  facet normal -9.906042e-01 -1.240813e-02  1.361963e-01
    outer loop
      vertex   2.086861e+02  2.555491e+02  3.217057e+02
      vertex   2.096302e+02  3.298851e+02  3.353449e+02
      vertex   2.032800e+02  3.984133e+02  2.954006e+02
    endloop
  endfacet
  facet normal -9.897878e-01 -8.787680e-03  1.422777e-01
    outer loop
      vertex   2.032800e+02  3.984133e+02  2.954006e+02
      vertex   2.096302e+02  3.298851e+02  3.353449e+02
      vertex   2.100882e+02  3.660409e+02  3.407645e+02
    endloop
  endfacet
  facet normal -9.922430e-01 -9.285361e-02  8.265544e-02
    outer loop
      vertex   2.032800e+02  3.984133e+02  2.954006e+02
      vertex   2.100882e+02  3.660409e+02  3.407645e+02
      vertex   2.079289e+02  4.324797e+02  3.894790e+02
    endloop
  endfacet
  facet normal -9.987307e-01 -4.655651e-02  1.922597e-02
    outer loop
      vertex   2.079289e+02  4.324797e+02  3.894790e+02
      vertex   2.100882e+02  3.660409e+02  3.407645e+02
      vertex   2.102985e+02  3.794527e+02  3.841653e+02
    endloop
  endfacet
  facet normal -9.976800e-01 -3.899083e-02 -5.580618e-02
    outer loop
      vertex   2.079289e+02  4.324797e+02  3.894790e+02
      vertex   2.102985e+02  3.794527e+02  3.841653e+02
      vertex   2.073733e+02  3.280108e+02  4.724033e+02
    endloop
  endfacet
  facet normal -9.989021e-01 -1.763975e-02 -4.339921e-02
    outer loop
      vertex   2.073733e+02  3.280108e+02  4.724033e+02
      vertex   2.102985e+02  3.794527e+02  3.841653e+02
      vertex   2.098310e+02  3.400244e+02  4.109527e+02
    endloop
  endfacet
  facet normal -9.989031e-01  3.264748e-02 -3.356808e-02
    outer loop
      vertex   2.073733e+02  3.280108e+02  4.724033e+02
      vertex   2.098310e+02  3.400244e+02  4.109527e+02
      vertex   2.094489e+02  3.108460e+02  3.939438e+02
    endloop
  endfacet
  facet normal -9.968714e-01  6.749207e-02 -4.113739e-02
    outer loop
      vertex   2.073733e+02  3.280108e+02  4.724033e+02
      vertex   2.094489e+02  3.108460e+02  3.939438e+02
      vertex   2.086861e+02  2.555491e+02  3.217057e+02
    endloop
  endfacet
  facet normal -9.999211e-01  1.252262e-02  9.728959e-04
    outer loop
      vertex   2.086861e+02  2.555491e+02  3.217057e+02
      vertex   2.094489e+02  3.108460e+02  3.939438e+02
      vertex   2.093456e+02  3.053998e+02  3.578886e+02
    endloop
  endfacet
  facet normal  9.999211e-01 -1.251975e-02 -9.730508e-04
    outer loop
      vertex   1.961642e+02  2.613901e+02  4.235766e+02
      vertex   1.965610e+02  2.981231e+02  3.587451e+02
      vertex   1.967807e+02  3.119932e+02  4.059866e+02
    endloop
  endfacet
  facet normal  9.878473e-01 -6.163278e-02 -1.426853e-01
    outer loop
      vertex   1.961642e+02  2.613901e+02  4.235766e+02
      vertex   1.967807e+02  3.119932e+02  4.059866e+02
      vertex   2.073733e+02  3.280108e+02  4.724033e+02
    endloop
  endfacet
  facet normal  9.858568e-01  3.097656e-02 -1.647023e-01
    outer loop
      vertex   2.073733e+02  3.280108e+02  4.724033e+02
      vertex   1.967807e+02  3.119932e+02  4.059866e+02
      vertex   1.972425e+02  3.481316e+02  4.155478e+02
    endloop
  endfacet
  facet normal  9.682767e-01 -1.245692e-01 -2.166165e-01
    outer loop
      vertex   2.073733e+02  3.280108e+02  4.724033e+02
      vertex   1.972425e+02  3.481316e+02  4.155478e+02
      vertex   1.975956e+02  3.775209e+02  4.002252e+02
    endloop
  endfacet
  facet normal  9.306287e-01 -2.305497e-01 -2.842131e-01
    outer loop
      vertex   2.073733e+02  3.280108e+02  4.724033e+02
      vertex   1.975956e+02  3.775209e+02  4.002252e+02
      vertex   2.079289e+02  4.324797e+02  3.894790e+02
    endloop
  endfacet
  facet normal  9.823990e-01 -1.865561e-01 -9.438228e-03
    outer loop
      vertex   2.079289e+02  4.324797e+02  3.894790e+02
      vertex   1.975956e+02  3.775209e+02  4.002252e+02
      vertex   1.975762e+02  3.801137e+02  3.469552e+02
    endloop
  endfacet
  facet normal  9.755252e-01 -2.177423e-01  3.063970e-02
    outer loop
      vertex   2.079289e+02  4.324797e+02  3.894790e+02
      vertex   1.975762e+02  3.801137e+02  3.469552e+02
      vertex   2.032800e+02  3.984133e+02  2.954006e+02
    endloop
  endfacet
  facet normal  9.942544e-01 -5.982201e-02  8.876656e-02
    outer loop
      vertex   2.032800e+02  3.984133e+02  2.954006e+02
      vertex   1.975762e+02  3.801137e+02  3.469552e+02
      vertex   1.970542e+02  3.400766e+02  3.258194e+02
    endloop
  endfacet
  facet normal  9.949546e-01 -6.746151e-02  7.425892e-02
    outer loop
      vertex   2.032800e+02  3.984133e+02  2.954006e+02
      vertex   1.970542e+02  3.400766e+02  3.258194e+02
      vertex   1.963837e+02  2.894104e+02  2.887751e+02
    endloop
  endfacet
  facet normal  9.999211e-01 -1.252021e-02 -9.752456e-04
    outer loop
      vertex   1.963837e+02  2.894104e+02  2.887751e+02
      vertex   1.970542e+02  3.400766e+02  3.258194e+02
      vertex   1.965610e+02  2.981231e+02  3.587451e+02
    endloop
  endfacet
  facet normal  9.999211e-01 -1.252301e-02 -9.748975e-04
    outer loop
      vertex   1.963837e+02  2.894104e+02  2.887751e+02
      vertex   1.965610e+02  2.981231e+02  3.587451e+02
      vertex   1.961642e+02  2.613901e+02  4.235766e+02
    endloop
  endfacet
  facet normal -9.570044e-01  2.580783e-01 -1.324320e-01
    outer loop
      vertex   1.961642e+02  2.613901e+02  4.235766e+02
      vertex   2.073733e+02  3.280108e+02  4.724033e+02
      vertex   2.086861e+02  2.555491e+02  3.217057e+02
    endloop
  endfacet
  facet normal -9.878705e-01  1.081186e-01  1.114546e-01
    outer loop
      vertex  -3.441650e+00  2.701197e+02  3.031642e+02
      vertex   6.175865e+00  3.005071e+02  3.589305e+02
      vertex   6.610333e+00  3.377148e+02  3.266873e+02
    endloop
  endfacet
  facet normal -9.392408e-01  2.043069e-02  3.426503e-01
    outer loop
      vertex  -3.441650e+00  2.701197e+02  3.031642e+02
      vertex   6.610333e+00  3.377148e+02  3.266873e+02
      vertex   3.958380e+00  4.441204e+02  3.130735e+02
    endloop
  endfacet
  facet normal -9.972154e-01 -1.552141e-02  7.294112e-02
    outer loop
      vertex   3.958380e+00  4.441204e+02  3.130735e+02
      vertex   6.610333e+00  3.377148e+02  3.266873e+02
      vertex   7.154658e+00  3.799055e+02  3.431070e+02
    endloop
  endfacet
  facet normal -9.980528e-01 -5.906084e-02 -2.006207e-02
    outer loop
      vertex   3.958380e+00  4.441204e+02  3.130735e+02
      vertex   7.154658e+00  3.799055e+02  3.431070e+02
      vertex   2.934587e+00  4.207496e+02  4.328070e+02
    endloop
  endfacet
  facet normal -9.928999e-01 -1.187256e-01  7.348174e-03
    outer loop
      vertex   2.934587e+00  4.207496e+02  4.328070e+02
      vertex   7.154658e+00  3.799055e+02  3.431070e+02
      vertex   7.239000e+00  3.824971e+02  3.963771e+02
    endloop
  endfacet
  facet normal -9.961663e-01 -3.628932e-02 -7.959824e-02
    outer loop
      vertex   2.934587e+00  4.207496e+02  4.328070e+02
      vertex   7.239000e+00  3.824971e+02  3.963771e+02
      vertex   6.857392e+00  3.505155e+02  4.157335e+02
    endloop
  endfacet
  facet normal -9.918838e-01 -2.509946e-02 -1.246453e-01
    outer loop
      vertex   2.934587e+00  4.207496e+02  4.328070e+02
      vertex   6.857392e+00  3.505155e+02  4.157335e+02
      vertex   3.498407e+00  2.918346e+02  4.542795e+02
    endloop
  endfacet
  facet normal -9.983812e-01  2.296896e-02 -5.203412e-02
    outer loop
      vertex   3.498407e+00  2.918346e+02  4.542795e+02
      vertex   6.857392e+00  3.505155e+02  4.157335e+02
      vertex   6.444020e+00  3.180006e+02  4.093121e+02
    endloop
  endfacet
  facet normal -9.968853e-01  7.599495e-02 -2.108099e-02
    outer loop
      vertex   3.498407e+00  2.918346e+02  4.542795e+02
      vertex   6.444020e+00  3.180006e+02  4.093121e+02
      vertex   6.175865e+00  3.005071e+02  3.589305e+02
    endloop
  endfacet
  facet normal -9.536930e-01  3.007811e-01  5.773244e-04
    outer loop
      vertex   3.498407e+00  2.918346e+02  4.542795e+02
      vertex   6.175865e+00  3.005071e+02  3.589305e+02
      vertex  -3.441650e+00  2.701197e+02  3.031642e+02
    endloop
  endfacet
  facet normal -9.999403e-01  1.091501e-02  5.147473e-04
    outer loop
      vertex  -3.008134e+00  3.801798e+02  3.878565e+02
      vertex  -3.133869e+00  3.707639e+02  3.432677e+02
      vertex  -3.554921e+00  3.325545e+02  3.355526e+02
    endloop
  endfacet
  facet normal -9.999403e-01  1.091050e-02  5.188577e-04
    outer loop
      vertex  -3.554921e+00  3.325545e+02  3.355526e+02
      vertex  -3.467084e+00  3.370869e+02  4.095254e+02
      vertex  -3.008134e+00  3.801798e+02  3.878565e+02
    endloop
  endfacet
  facet normal -9.999402e-01  1.092098e-02  5.182154e-04
    outer loop
      vertex  -3.467084e+00  3.370869e+02  4.095254e+02
      vertex  -3.554921e+00  3.325545e+02  3.355526e+02
      vertex  -3.732491e+00  3.135154e+02  3.941515e+02
    endloop
  endfacet
  facet normal -9.984124e-01 -5.306223e-02 -1.889427e-02
    outer loop
      vertex   2.934587e+00  4.207496e+02  4.328070e+02
      vertex   4.282234e-01  4.473103e+02  4.906558e+02
      vertex   3.958380e+00  4.441204e+02  3.130735e+02
    endloop
  endfacet
  facet normal -9.548948e-01  4.471968e-02  2.935576e-01
    outer loop
      vertex   2.934587e+00  4.207496e+02  4.328070e+02
      vertex   3.498407e+00  2.918346e+02  4.542795e+02
      vertex   1.267298e+01  2.384187e+02  4.922601e+02
    endloop
  endfacet
  facet normal -9.999409e-01  1.085874e-02  4.979913e-04
    outer loop
      vertex  -3.554921e+00  3.325545e+02  3.355526e+02
      vertex  -3.777244e+00  3.113293e+02  3.519562e+02
      vertex  -3.732491e+00  3.135154e+02  3.941515e+02
    endloop
  endfacet
  facet normal  1.042868e-02  1.849950e-01 -9.826841e-01
    outer loop
      vertex  -3.273494e+00  3.675212e+02  1.012373e+02
      vertex   2.100640e+02  3.688556e+02  1.037525e+02
      vertex   2.096451e+02  3.303313e+02  9.649566e+01
    endloop
  endfacet
  facet normal -1.732237e-02  2.825319e-02 -9.994507e-01
    outer loop
      vertex  -3.273494e+00  3.675212e+02  1.012373e+02
      vertex   2.096451e+02  3.303313e+02  9.649566e+01
      vertex  -3.750971e+00  3.235867e+02  1.000036e+02
    endloop
  endfacet
  facet normal  1.171688e-02 -7.275103e-01 -6.859968e-01
    outer loop
      vertex  -3.750971e+00  3.235867e+02  1.000036e+02
      vertex   2.096451e+02  3.303313e+02  9.649566e+01
      vertex   2.093646e+02  3.034302e+02  1.250199e+02
    endloop
  endfacet
  facet normal -2.896787e-02 -8.844063e-01 -4.658181e-01
    outer loop
      vertex  -3.750971e+00  3.235867e+02  1.000036e+02
      vertex   2.093646e+02  3.034302e+02  1.250199e+02
      vertex  -3.924409e+00  3.063248e+02  1.327880e+02
    endloop
  endfacet
  facet normal  3.385293e-03 -9.030771e-01  4.294651e-01
    outer loop
      vertex  -3.924409e+00  3.063248e+02  1.327880e+02
      vertex   2.093646e+02  3.034302e+02  1.250199e+02
      vertex  -3.748005e+00  3.213894e+02  1.644644e+02
    endloop
  endfacet
  facet normal  9.511192e-04 -9.081578e-01  4.186269e-01
    outer loop
      vertex  -3.748005e+00  3.213894e+02  1.644644e+02
      vertex   2.093646e+02  3.034302e+02  1.250199e+02
      vertex   2.095892e+02  3.228333e+02  1.671121e+02
    endloop
  endfacet
  facet normal -6.007502e-04  9.035826e-01 -4.284135e-01
    outer loop
      vertex  -3.273494e+00  3.675212e+02  1.012373e+02
      vertex  -3.095895e+00  3.824804e+02  1.327880e+02
      vertex   2.100640e+02  3.688556e+02  1.037525e+02
    endloop
  endfacet
  facet normal  9.933315e-03  9.313106e-01 -3.640905e-01
    outer loop
      vertex   2.100640e+02  3.688556e+02  1.037525e+02
      vertex  -3.095895e+00  3.824804e+02  1.327880e+02
      vertex   2.101967e+02  3.801757e+02  1.327119e+02
    endloop
  endfacet
  facet normal -1.239583e-02 -2.059242e-03  9.999211e-01
    outer loop
      vertex   2.095892e+02  3.228333e+02  1.671121e+02
      vertex  -3.222262e+00  3.698232e+02  1.645707e+02
      vertex  -3.748005e+00  3.213894e+02  1.644644e+02
    endloop
  endfacet
  facet normal  1.201736e-02  1.081881e-01  9.940578e-01
    outer loop
      vertex  -3.222262e+00  3.698232e+02  1.645707e+02
      vertex   2.095892e+02  3.228333e+02  1.671121e+02
      vertex   2.100657e+02  3.670759e+02  1.622912e+02
    endloop
  endfacet
  facet normal  1.017000e-02  9.289770e-01  3.699977e-01
    outer loop
      vertex  -3.095895e+00  3.824804e+02  1.327880e+02
      vertex  -3.222262e+00  3.698232e+02  1.645707e+02
      vertex   2.101967e+02  3.801757e+02  1.327119e+02
    endloop
  endfacet
  facet normal  1.610323e-02  9.142005e-01  4.049422e-01
    outer loop
      vertex   2.101967e+02  3.801757e+02  1.327119e+02
      vertex  -3.222262e+00  3.698232e+02  1.645707e+02
      vertex   2.100657e+02  3.670759e+02  1.622912e+02
    endloop
  endfacet
  facet normal  3.241837e-02 -3.180373e-01  9.475238e-01
    outer loop
      vertex   6.566375e+00  3.330666e+02  8.839516e+01
      vertex   1.972822e+02  3.611501e+02  9.129632e+01
      vertex   7.079244e+00  3.800043e+02  1.041323e+02
    endloop
  endfacet
  facet normal  2.559570e-02  6.142202e-01  7.887195e-01
    outer loop
      vertex   6.291190e+00  3.069205e+02  1.087655e+02
      vertex   1.967581e+02  3.124180e+02  9.830322e+01
      vertex   6.566375e+00  3.330666e+02  8.839516e+01
    endloop
  endfacet
  facet normal  1.365282e-02 -4.669069e-01 -8.842011e-01
    outer loop
      vertex   7.126205e+00  3.825963e+02  1.574025e+02
      vertex   1.974189e+02  3.713266e+02  1.662918e+02
      vertex   6.701157e+00  3.425581e+02  1.785383e+02
    endloop
  endfacet
  facet normal -2.297572e-02 -2.587616e-01 -9.656680e-01
    outer loop
      vertex   6.701157e+00  3.425581e+02  1.785383e+02
      vertex   1.974189e+02  3.713266e+02  1.662918e+02
      vertex   1.969871e+02  3.310090e+02  1.771056e+02
    endloop
  endfacet
  facet normal -3.604590e-02  1.426077e-01  9.891227e-01
    outer loop
      vertex   6.566375e+00  3.330666e+02  8.839516e+01
      vertex   1.967581e+02  3.124180e+02  9.830322e+01
      vertex   1.972822e+02  3.611501e+02  9.129632e+01
    endloop
  endfacet
  facet normal -5.211497e-02 -8.652295e-01  4.986601e-01
    outer loop
      vertex   1.975863e+02  3.877672e+02  1.375116e+02
      vertex   7.079244e+00  3.800043e+02  1.041323e+02
      vertex   1.972822e+02  3.611501e+02  9.129632e+01
    endloop
  endfacet
  facet normal -2.823196e-02 -8.678948e-01 -4.959451e-01
    outer loop
      vertex   1.974189e+02  3.713266e+02  1.662918e+02
      vertex   7.126205e+00  3.825963e+02  1.574025e+02
      vertex   1.975863e+02  3.877672e+02  1.375116e+02
    endloop
  endfacet
  facet normal  2.178315e-02  9.853847e-01  1.689452e-01
    outer loop
      vertex   6.236035e+00  3.006042e+02  1.456128e+02
      vertex   1.966089e+02  2.971962e+02  1.409442e+02
      vertex   6.291190e+00  3.069205e+02  1.087655e+02
    endloop
  endfacet
  facet normal -8.717461e-03  9.417658e-01  3.361566e-01
    outer loop
      vertex   6.291190e+00  3.069205e+02  1.087655e+02
      vertex   1.966089e+02  2.971962e+02  1.409442e+02
      vertex   1.967581e+02  3.124180e+02  9.830322e+01
    endloop
  endfacet
  facet normal  3.151782e-02  6.168548e-01 -7.864456e-01
    outer loop
      vertex   6.701157e+00  3.425581e+02  1.785383e+02
      vertex   1.969871e+02  3.310090e+02  1.771056e+02
      vertex   6.236035e+00  3.006042e+02  1.456128e+02
    endloop
  endfacet
  facet normal -3.672504e-03  7.304435e-01 -6.829633e-01
    outer loop
      vertex   6.236035e+00  3.006042e+02  1.456128e+02
      vertex   1.969871e+02  3.310090e+02  1.771056e+02
      vertex   1.966089e+02  2.971962e+02  1.409442e+02
    endloop
  endfacet
  facet normal  3.217304e-02 -9.983026e-01  4.854746e-02
    outer loop
      vertex   1.975863e+02  3.877672e+02  1.375116e+02
      vertex   7.126205e+00  3.825963e+02  1.574025e+02
      vertex   7.079244e+00  3.800043e+02  1.041323e+02
    endloop
  endfacet
  facet normal  3.445421e-01 -3.116688e-01  8.855243e-01
    outer loop
      vertex   1.967733e+02  3.156235e+02  4.381569e+01
      vertex   2.094153e+02  3.110201e+02  3.727666e+01
      vertex   2.035235e+02  4.191527e+02  7.762735e+01
    endloop
  endfacet
  facet normal -9.823960e-01  1.864656e-01 -1.134054e-02
    outer loop
      vertex   1.960579e+02  2.464673e+02  1.329832e+02
      vertex   2.019896e+02  2.825561e+02  2.125255e+02
      vertex   2.094153e+02  3.110201e+02  3.727666e+01
    endloop
  endfacet
  facet normal  5.179144e-01  6.739407e-01  5.268477e-01
    outer loop
      vertex   1.960579e+02  2.464673e+02  1.329832e+02
      vertex   2.094153e+02  3.110201e+02  3.727666e+01
      vertex   1.967733e+02  3.156235e+02  4.381569e+01
    endloop
  endfacet
  facet normal -8.752849e-01  4.818517e-01  4.117484e-02
    outer loop
      vertex   2.093646e+02  3.034302e+02  1.250199e+02
      vertex   2.094153e+02  3.110201e+02  3.727666e+01
      vertex   2.019896e+02  2.825561e+02  2.125255e+02
    endloop
  endfacet
  facet normal -9.999416e-01  1.080509e-02  3.564654e-04
    outer loop
      vertex   2.094153e+02  3.110201e+02  3.727666e+01
      vertex   2.093646e+02  3.034302e+02  1.250199e+02
      vertex   2.096451e+02  3.303313e+02  9.649566e+01
    endloop
  endfacet
  facet normal -9.999416e-01  1.080592e-02  3.561974e-04
    outer loop
      vertex   2.094153e+02  3.110201e+02  3.727666e+01
      vertex   2.096451e+02  3.303313e+02  9.649566e+01
      vertex   2.100640e+02  3.688556e+02  1.037525e+02
    endloop
  endfacet
  facet normal -9.927923e-01 -8.545130e-02  8.403240e-02
    outer loop
      vertex   2.094153e+02  3.110201e+02  3.727666e+01
      vertex   2.100640e+02  3.688556e+02  1.037525e+02
      vertex   2.035235e+02  4.191527e+02  7.762735e+01
    endloop
  endfacet
  facet normal -9.933757e-01 -1.054086e-01  4.575586e-02
    outer loop
      vertex   2.101967e+02  3.801757e+02  1.327119e+02
      vertex   2.035235e+02  4.191527e+02  7.762735e+01
      vertex   2.100640e+02  3.688556e+02  1.037525e+02
    endloop
  endfacet
  facet normal -9.910474e-01 -1.306199e-01  2.763470e-02
    outer loop
      vertex   2.104002e+02  3.962685e+02  2.160748e+02
      vertex   2.035235e+02  4.191527e+02  7.762735e+01
      vertex   2.101967e+02  3.801757e+02  1.327119e+02
    endloop
  endfacet
  facet normal -9.999416e-01  1.080222e-02  3.555692e-04
    outer loop
      vertex   2.104002e+02  3.962685e+02  2.160748e+02
      vertex   2.101967e+02  3.801757e+02  1.327119e+02
      vertex   2.100657e+02  3.670759e+02  1.622912e+02
    endloop
  endfacet
  facet normal -9.999415e-01  1.080700e-02  3.529781e-04
    outer loop
      vertex   2.095892e+02  3.228333e+02  1.671121e+02
      vertex   2.104002e+02  3.962685e+02  2.160748e+02
      vertex   2.100657e+02  3.670759e+02  1.622912e+02
    endloop
  endfacet
  facet normal -9.922222e-01  7.645456e-02 -9.823427e-02
    outer loop
      vertex   2.019896e+02  2.825561e+02  2.125255e+02
      vertex   2.104002e+02  3.962685e+02  2.160748e+02
      vertex   2.095892e+02  3.228333e+02  1.671121e+02
    endloop
  endfacet
  facet normal -9.904879e-01  1.268954e-01 -5.320793e-02
    outer loop
      vertex   2.095892e+02  3.228333e+02  1.671121e+02
      vertex   2.093646e+02  3.034302e+02  1.250199e+02
      vertex   2.019896e+02  2.825561e+02  2.125255e+02
    endloop
  endfacet
  facet normal  9.972001e-01  9.035398e-04 -7.477389e-02
    outer loop
      vertex   1.960579e+02  2.464673e+02  1.329832e+02
      vertex   1.966089e+02  2.971962e+02  1.409442e+02
      vertex   2.019896e+02  2.825561e+02  2.125255e+02
    endloop
  endfacet
  facet normal  9.963878e-01  5.658025e-02 -6.332555e-02
    outer loop
      vertex   2.019896e+02  2.825561e+02  2.125255e+02
      vertex   1.966089e+02  2.971962e+02  1.409442e+02
      vertex   1.969871e+02  3.310090e+02  1.771056e+02
    endloop
  endfacet
  facet normal  9.817973e-01 -3.508724e-02 -1.866623e-01
    outer loop
      vertex   1.969871e+02  3.310090e+02  1.771056e+02
      vertex   1.980987e+02  4.343260e+02  1.635317e+02
      vertex   2.019896e+02  2.825561e+02  2.125255e+02
    endloop
  endfacet
  facet normal  9.999415e-01 -1.080517e-02 -3.550905e-04
    outer loop
      vertex   1.980987e+02  4.343260e+02  1.635317e+02
      vertex   1.969871e+02  3.310090e+02  1.771056e+02
      vertex   1.974189e+02  3.713266e+02  1.662918e+02
    endloop
  endfacet
  facet normal  9.999415e-01 -1.080517e-02 -3.550352e-04
    outer loop
      vertex   1.980987e+02  4.343260e+02  1.635317e+02
      vertex   1.974189e+02  3.713266e+02  1.662918e+02
      vertex   1.975863e+02  3.877672e+02  1.375116e+02
    endloop
  endfacet
  facet normal  9.960956e-01 -5.116659e-02  7.194110e-02
    outer loop
      vertex   1.980987e+02  4.343260e+02  1.635317e+02
      vertex   1.975863e+02  3.877672e+02  1.375116e+02
      vertex   2.035235e+02  4.191527e+02  7.762735e+01
    endloop
  endfacet
  facet normal  9.942422e-01 -9.555679e-02  4.849229e-02
    outer loop
      vertex   2.035235e+02  4.191527e+02  7.762735e+01
      vertex   1.975863e+02  3.877672e+02  1.375116e+02
      vertex   1.972822e+02  3.611501e+02  9.129632e+01
    endloop
  endfacet
  facet normal  9.931916e-01 -8.922008e-02  7.490160e-02
    outer loop
      vertex   2.035235e+02  4.191527e+02  7.762735e+01
      vertex   1.972822e+02  3.611501e+02  9.129632e+01
      vertex   1.967733e+02  3.156235e+02  4.381569e+01
    endloop
  endfacet
  facet normal  9.999416e-01 -1.080546e-02 -3.581870e-04
    outer loop
      vertex   1.967733e+02  3.156235e+02  4.381569e+01
      vertex   1.972822e+02  3.611501e+02  9.129632e+01
      vertex   1.967581e+02  3.124180e+02  9.830322e+01
    endloop
  endfacet
  facet normal  9.999415e-01 -1.080489e-02 -3.581533e-04
    outer loop
      vertex   1.967733e+02  3.156235e+02  4.381569e+01
      vertex   1.967581e+02  3.124180e+02  9.830322e+01
      vertex   1.960579e+02  2.464673e+02  1.329832e+02
    endloop
  endfacet
  facet normal  9.999415e-01 -1.080452e-02 -3.574412e-04
    outer loop
      vertex   1.960579e+02  2.464673e+02  1.329832e+02
      vertex   1.967581e+02  3.124180e+02  9.830322e+01
      vertex   1.966089e+02  2.971962e+02  1.409442e+02
    endloop
  endfacet
  facet normal -9.496304e-01 -3.133378e-01 -4.624183e-03
    outer loop
      vertex   2.104002e+02  3.962685e+02  2.160748e+02
      vertex   1.980987e+02  4.343260e+02  1.635317e+02
      vertex   2.035235e+02  4.191527e+02  7.762735e+01
    endloop
  endfacet
  facet normal  9.607404e-01 -6.262323e-02 -2.702893e-01
    outer loop
      vertex   1.980987e+02  4.343260e+02  1.635317e+02
      vertex   2.104002e+02  3.962685e+02  2.160748e+02
      vertex   2.019896e+02  2.825561e+02  2.125255e+02
    endloop
  endfacet
  facet normal -9.718153e-01 -2.174783e-01  9.098414e-02
    outer loop
      vertex  -2.352489e+00  4.505005e+02  1.047767e+02
      vertex   7.066118e+00  3.839125e+02  4.621380e+01
      vertex   7.681841e+00  4.335488e+02  1.714356e+02
    endloop
  endfacet
  facet normal -9.914768e-01  1.286500e-01  2.056880e-02
    outer loop
      vertex   6.236035e+00  3.006042e+02  1.456128e+02
      vertex   6.291190e+00  3.069205e+02  1.087655e+02
      vertex  -1.537623e+00  2.482736e+02  9.820736e+01
    endloop
  endfacet
  facet normal -9.859866e-01  1.088627e-01  1.264094e-01
    outer loop
      vertex  -1.537623e+00  2.482736e+02  9.820736e+01
      vertex   6.291190e+00  3.069205e+02  1.087655e+02
      vertex   6.566375e+00  3.330666e+02  8.839516e+01
    endloop
  endfacet
  facet normal -9.870501e-01  1.080557e-01  1.185576e-01
    outer loop
      vertex  -1.537623e+00  2.482736e+02  9.820736e+01
      vertex   6.566375e+00  3.330666e+02  8.839516e+01
      vertex   7.066118e+00  3.839125e+02  4.621380e+01
    endloop
  endfacet
  facet normal -9.999433e-01  1.060995e-02  9.425510e-04
    outer loop
      vertex   7.066118e+00  3.839125e+02  4.621380e+01
      vertex   6.566375e+00  3.330666e+02  8.839516e+01
      vertex   7.079244e+00  3.800043e+02  1.041323e+02
    endloop
  endfacet
  facet normal -9.999486e-01  1.011111e-02  9.088920e-04
    outer loop
      vertex   7.066118e+00  3.839125e+02  4.621380e+01
      vertex   7.079244e+00  3.800043e+02  1.041323e+02
      vertex   7.681841e+00  4.335488e+02  1.714356e+02
    endloop
  endfacet
  facet normal -9.999416e-01  1.080638e-02  3.556961e-04
    outer loop
      vertex   7.681841e+00  4.335488e+02  1.714356e+02
      vertex   7.079244e+00  3.800043e+02  1.041323e+02
      vertex   7.126205e+00  3.825963e+02  1.574025e+02
    endloop
  endfacet
  facet normal -9.999416e-01  1.080529e-02  3.596454e-04
    outer loop
      vertex   7.681841e+00  4.335488e+02  1.714356e+02
      vertex   7.126205e+00  3.825963e+02  1.574025e+02
      vertex   6.701157e+00  3.425581e+02  1.785383e+02
    endloop
  endfacet
  facet normal -9.999416e-01  1.080512e-02  3.573970e-04
    outer loop
      vertex   7.681841e+00  4.335488e+02  1.714356e+02
      vertex   6.701157e+00  3.425581e+02  1.785383e+02
      vertex   6.490054e+00  3.215752e+02  2.222760e+02
    endloop
  endfacet
  facet normal -9.999415e-01  1.080531e-02  3.574874e-04
    outer loop
      vertex   6.490054e+00  3.215752e+02  2.222760e+02
      vertex   6.701157e+00  3.425581e+02  1.785383e+02
      vertex   6.236035e+00  3.006042e+02  1.456128e+02
    endloop
  endfacet
  facet normal -9.806266e-01  1.897475e-01 -4.865560e-02
    outer loop
      vertex   6.490054e+00  3.215752e+02  2.222760e+02
      vertex   6.236035e+00  3.006042e+02  1.456128e+02
      vertex  -1.537623e+00  2.482736e+02  9.820736e+01
    endloop
  endfacet
  facet normal -8.525679e-01 -5.225966e-01 -4.559275e-03
    outer loop
      vertex   7.681841e+00  4.335488e+02  1.714356e+02
      vertex  -2.328954e+00  4.496039e+02  2.031368e+02
      vertex  -2.352489e+00  4.505005e+02  1.047767e+02
    endloop
  endfacet
  facet normal -9.623235e-01 -1.038537e-01 -2.512920e-01
    outer loop
      vertex   6.490054e+00  3.215752e+02  2.222760e+02
      vertex  -2.328954e+00  4.496039e+02  2.031368e+02
      vertex   7.681841e+00  4.335488e+02  1.714356e+02
    endloop
  endfacet
  facet normal  9.739116e-01  3.353475e-02 -2.244359e-01
    outer loop
      vertex  -4.568167e+00  2.458047e+02  1.629687e+02
      vertex  -2.328954e+00  4.496039e+02  2.031368e+02
      vertex   6.490054e+00  3.215752e+02  2.222760e+02
    endloop
  endfacet
  facet normal -9.838824e-01  1.744240e-01 -3.939160e-02
    outer loop
      vertex  -1.537623e+00  2.482736e+02  9.820736e+01
      vertex  -4.568167e+00  2.458047e+02  1.629687e+02
      vertex   6.490054e+00  3.215752e+02  2.222760e+02
    endloop
  endfacet
  facet normal -9.975374e-01  5.411530e-02 -4.461724e-02
    outer loop
      vertex  -1.537623e+00  2.482736e+02  9.820736e+01
      vertex  -6.331700e+00  9.152382e+01  1.527322e+01
      vertex  -4.568167e+00  2.458047e+02  1.629687e+02
    endloop
  endfacet
  facet normal -9.999325e-01  9.735781e-03  6.346246e-03
    outer loop
      vertex  -3.441650e+00  2.701197e+02  3.031642e+02
      vertex  -2.328954e+00  4.496039e+02  2.031368e+02
      vertex  -4.568167e+00  2.458047e+02  1.629687e+02
    endloop
  endfacet
  facet normal -9.999411e-01  1.085332e-02  4.143744e-04
    outer loop
      vertex  -3.222262e+00  3.698232e+02  1.645707e+02
      vertex  -3.273494e+00  3.675212e+02  1.012373e+02
      vertex  -3.748005e+00  3.213894e+02  1.644644e+02
    endloop
  endfacet
  facet normal -9.999410e-01  1.085561e-02  4.160468e-04
    outer loop
      vertex  -3.748005e+00  3.213894e+02  1.644644e+02
      vertex  -3.273494e+00  3.675212e+02  1.012373e+02
      vertex  -3.750971e+00  3.235867e+02  1.000036e+02
    endloop
  endfacet
  facet normal -9.999412e-01  1.083574e-02  4.153693e-04
    outer loop
      vertex  -3.924409e+00  3.063248e+02  1.327880e+02
      vertex  -3.748005e+00  3.213894e+02  1.644644e+02
      vertex  -3.750971e+00  3.235867e+02  1.000036e+02
    endloop
  endfacet
  facet normal  9.870926e-01 -1.224903e-03  1.601457e-01
    outer loop
      vertex   7.066118e+00  3.839125e+02  4.621380e+01
      vertex  -2.352489e+00  4.505005e+02  1.047767e+02
      vertex  -1.537623e+00  2.482736e+02  9.820736e+01
    endloop
  endfacet
  facet normal -2.638098e-02 -6.700129e-01 -7.418806e-01
    outer loop
      vertex  -6.370247e+00  8.356460e+01  1.081585e+02
      vertex  -6.109688e+00  1.074450e+02  8.658216e+01
      vertex   2.024012e+02  9.275039e+01  9.243870e+01
    endloop
  endfacet
  facet normal  2.052638e-02 -9.577036e-01 -2.870235e-01
    outer loop
      vertex   2.022730e+02  7.935383e+01  1.371295e+02
      vertex  -6.370247e+00  8.356460e+01  1.081585e+02
      vertex   2.024012e+02  9.275039e+01  9.243870e+01
    endloop
  endfacet
  facet normal -3.799804e-02 -9.908325e-01  1.296422e-01
    outer loop
      vertex  -6.370247e+00  8.356460e+01  1.081585e+02
      vertex   2.022730e+02  7.935383e+01  1.371295e+02
      vertex  -6.301175e+00  8.840607e+01  1.451812e+02
    endloop
  endfacet
  facet normal  6.231972e-03 -5.805917e-01  8.141710e-01
    outer loop
      vertex  -6.301175e+00  8.840607e+01  1.451812e+02
      vertex   2.022730e+02  7.935383e+01  1.371295e+02
      vertex  -6.071649e+00  1.083028e+02  1.593680e+02
    endloop
  endfacet
  facet normal  1.981277e-02 -5.154942e-01  8.566639e-01
    outer loop
      vertex  -6.071649e+00  1.083028e+02  1.593680e+02
      vertex   2.022730e+02  7.935383e+01  1.371295e+02
      vertex   2.027261e+02  1.200245e+02  1.615924e+02
    endloop
  endfacet
  facet normal -3.311180e-02  4.174939e-01  9.080762e-01
    outer loop
      vertex  -6.071649e+00  1.083028e+02  1.593680e+02
      vertex   2.027261e+02  1.200245e+02  1.615924e+02
      vertex  -5.544518e+00  1.564213e+02  1.372644e+02
    endloop
  endfacet
  facet normal -1.099137e-02  5.114364e-01  8.592508e-01
    outer loop
      vertex  -5.544518e+00  1.564213e+02  1.372644e+02
      vertex   2.027261e+02  1.200245e+02  1.615924e+02
      vertex   2.030216e+02  1.477426e+02  1.450980e+02
    endloop
  endfacet
  facet normal -9.980658e-01  3.586653e-02  5.077581e-02
    outer loop
      vertex  -6.331700e+00  9.152382e+01  1.527322e+01
      vertex  -4.358746e+00  4.973926e+00  1.151905e+02
      vertex  -3.668618e-02  1.539144e+02  9.493917e+01
    endloop
  endfacet
  facet normal -9.348635e-01 -2.398615e-01  2.617189e-01
    outer loop
      vertex  -6.331700e+00  9.152382e+01  1.527322e+01
      vertex  -3.668618e-02  1.539144e+02  9.493917e+01
      vertex  -4.568167e+00  2.458047e+02  1.629687e+02
    endloop
  endfacet
  facet normal -9.979704e-01 -6.148441e-02  1.657418e-02
    outer loop
      vertex   7.839285e-02  1.629879e+02  1.355279e+02
      vertex  -4.568167e+00  2.458047e+02  1.629687e+02
      vertex  -3.668618e-02  1.539144e+02  9.493917e+01
    endloop
  endfacet
  facet normal  1.620988e-02 -1.631453e-01 -9.864689e-01
    outer loop
      vertex   2.024012e+02  9.275039e+01  9.243870e+01
      vertex  -6.109688e+00  1.074450e+02  8.658216e+01
      vertex   2.027907e+02  1.287041e+02  8.649896e+01
    endloop
  endfacet
  facet normal -2.718250e-02  2.633320e-01 -9.643223e-01
    outer loop
      vertex   2.027907e+02  1.287041e+02  8.649896e+01
      vertex  -6.109688e+00  1.074450e+02  8.658216e+01
      vertex  -5.665446e+00  1.470842e+02  9.739410e+01
    endloop
  endfacet
  facet normal  2.650404e-02  7.148226e-01 -6.988034e-01
    outer loop
      vertex   2.027907e+02  1.287041e+02  8.649896e+01
      vertex  -5.665446e+00  1.470842e+02  9.739410e+01
      vertex   2.030860e+02  1.548079e+02  1.132124e+02
    endloop
  endfacet
  facet normal -1.874804e-02  9.734983e-01 -2.279243e-01
    outer loop
      vertex  -5.665446e+00  1.470842e+02  9.739410e+01
      vertex  -5.544518e+00  1.564213e+02  1.372644e+02
      vertex   2.030860e+02  1.548079e+02  1.132124e+02
    endloop
  endfacet
  facet normal  3.248037e-02  9.757901e-01  2.162838e-01
    outer loop
      vertex  -5.544518e+00  1.564213e+02  1.372644e+02
      vertex   2.030216e+02  1.477426e+02  1.450980e+02
      vertex   2.030860e+02  1.548079e+02  1.132124e+02
    endloop
  endfacet
  facet normal  3.731298e-03  3.074815e-01  9.515467e-01
    outer loop
      vertex   1.900370e+02  1.235558e+02  7.764857e+01
      vertex  -3.518346e-01  1.256311e+02  7.772453e+01
      vertex   1.896539e+02  8.798408e+01  8.914466e+01
    endloop
  endfacet
  facet normal  2.757467e-02  4.150314e-01  9.093891e-01
    outer loop
      vertex   1.896539e+02  8.798408e+01  8.914466e+01
      vertex  -3.518346e-01  1.256311e+02  7.772453e+01
      vertex  -8.318685e-01  8.084692e+01  9.817789e+01
    endloop
  endfacet
  facet normal -1.474984e-02 -5.629835e-01  8.263365e-01
    outer loop
      vertex   1.903821e+02  1.544475e+02  9.870126e+01
      vertex  -3.668618e-02  1.539144e+02  9.493917e+01
      vertex   1.900370e+02  1.235558e+02  7.764857e+01
    endloop
  endfacet
  facet normal -5.325845e-03 -5.198672e-01  8.542305e-01
    outer loop
      vertex   1.900370e+02  1.235558e+02  7.764857e+01
      vertex  -3.668618e-02  1.539144e+02  9.493917e+01
      vertex  -3.518346e-01  1.256311e+02  7.772453e+01
    endloop
  endfacet
  facet normal  1.490624e-02  3.672574e-01 -9.299999e-01
    outer loop
      vertex   1.896807e+02  8.798379e+01  1.562956e+02
      vertex  -7.823491e-01  8.343881e+01  1.514480e+02
      vertex   1.900215e+02  1.188094e+02  1.684741e+02
    endloop
  endfacet
  facet normal  1.595893e-02  3.624730e-01 -9.318576e-01
    outer loop
      vertex   1.900215e+02  1.188094e+02  1.684741e+02
      vertex  -7.823491e-01  8.343881e+01  1.514480e+02
      vertex  -3.158376e-01  1.256306e+02  1.678677e+02
    endloop
  endfacet
  facet normal -9.014291e-03  8.683001e-01  4.959573e-01
    outer loop
      vertex  -8.318685e-01  8.084692e+01  9.817789e+01
      vertex   1.894862e+02  7.154347e+01  1.179251e+02
      vertex   1.896539e+02  8.798408e+01  8.914466e+01
    endloop
  endfacet
  facet normal -1.191145e-02  9.191379e-01 -3.937557e-01
    outer loop
      vertex  -7.823491e-01  8.343881e+01  1.514480e+02
      vertex   1.896807e+02  8.798379e+01  1.562956e+02
      vertex   1.894862e+02  7.154347e+01  1.179251e+02
    endloop
  endfacet
  facet normal -2.153088e-02 -9.926671e-01  1.189470e-01
    outer loop
      vertex   1.904527e+02  1.594125e+02  1.401495e+02
      vertex   7.839285e-02  1.629879e+02  1.355279e+02
      vertex   1.903821e+02  1.544475e+02  9.870126e+01
    endloop
  endfacet
  facet normal -1.578308e-03 -9.759102e-01  2.181668e-01
    outer loop
      vertex   1.903821e+02  1.544475e+02  9.870126e+01
      vertex   7.839285e-02  1.629879e+02  1.355279e+02
      vertex  -3.668618e-02  1.539144e+02  9.493917e+01
    endloop
  endfacet
  facet normal -1.788351e-02 -5.719199e-01 -8.201146e-01
    outer loop
      vertex   1.900215e+02  1.188094e+02  1.684741e+02
      vertex  -3.158376e-01  1.256306e+02  1.678677e+02
      vertex   1.904527e+02  1.594125e+02  1.401495e+02
    endloop
  endfacet
  facet normal  6.060184e-03 -6.545328e-01 -7.560093e-01
    outer loop
      vertex   1.904527e+02  1.594125e+02  1.401495e+02
      vertex  -3.158376e-01  1.256306e+02  1.678677e+02
      vertex   7.839285e-02  1.629879e+02  1.355279e+02
    endloop
  endfacet
  facet normal  5.379549e-02  9.973697e-01 -4.857762e-02
    outer loop
      vertex  -7.823491e-01  8.343881e+01  1.514480e+02
      vertex   1.894862e+02  7.154347e+01  1.179251e+02
      vertex  -8.318685e-01  8.084692e+01  9.817789e+01
    endloop
  endfacet
  facet normal -9.956353e-01  7.252431e-02 -5.874174e-02
    outer loop
      vertex  -4.358746e+00  4.973926e+00  1.151905e+02
      vertex  -1.301678e-01  1.383735e+02  2.082179e+02
      vertex  -7.823491e-01  8.343881e+01  1.514480e+02
    endloop
  endfacet
  facet normal -9.999434e-01  1.056397e-02  1.265041e-03
    outer loop
      vertex  -7.823491e-01  8.343881e+01  1.514480e+02
      vertex  -1.301678e-01  1.383735e+02  2.082179e+02
      vertex  -3.158376e-01  1.256306e+02  1.678677e+02
    endloop
  endfacet
  facet normal -9.999343e-01  1.141477e-02  9.963113e-04
    outer loop
      vertex  -3.158376e-01  1.256306e+02  1.678677e+02
      vertex  -1.301678e-01  1.383735e+02  2.082179e+02
      vertex   7.839285e-02  1.629879e+02  1.355279e+02
    endloop
  endfacet
  facet normal  9.999406e-01 -1.089983e-02 -3.976880e-04
    outer loop
      vertex  -3.518346e-01  1.256311e+02  7.772453e+01
      vertex  -3.668618e-02  1.539144e+02  9.493917e+01
      vertex  -8.318685e-01  8.084692e+01  9.817789e+01
    endloop
  endfacet
  facet normal  9.809739e-01 -2.071022e-03  1.941286e-01
    outer loop
      vertex  -8.318685e-01  8.084692e+01  9.817789e+01
      vertex  -3.668618e-02  1.539144e+02  9.493917e+01
      vertex  -4.358746e+00  4.973926e+00  1.151905e+02
    endloop
  endfacet
  facet normal -9.989341e-01  4.613925e-02 -1.316332e-03
    outer loop
      vertex  -8.318685e-01  8.084692e+01  9.817789e+01
      vertex  -4.358746e+00  4.973926e+00  1.151905e+02
      vertex  -7.823491e-01  8.343881e+01  1.514480e+02
    endloop
  endfacet
  facet normal -9.912148e-01  9.534433e-02 -9.166615e-02
    outer loop
      vertex  -4.358746e+00  4.973926e+00  1.151905e+02
      vertex  -6.441549e+00  6.988161e+01  2.052247e+02
      vertex  -1.301678e-01  1.383735e+02  2.082179e+02
    endloop
  endfacet
  facet normal  9.583774e-01 -7.628918e-02 -2.751234e-01
    outer loop
      vertex  -6.441549e+00  6.988161e+01  2.052247e+02
      vertex  -4.568167e+00  2.458047e+02  1.629687e+02
      vertex  -1.301678e-01  1.383735e+02  2.082179e+02
    endloop
  endfacet
  facet normal -9.985801e-01 -4.952123e-02 -1.963412e-02
    outer loop
      vertex  -1.301678e-01  1.383735e+02  2.082179e+02
      vertex  -4.568167e+00  2.458047e+02  1.629687e+02
      vertex   7.839285e-02  1.629879e+02  1.355279e+02
    endloop
  endfacet
  facet normal  9.999405e-01 -1.089993e-02 -3.984577e-04
    outer loop
      vertex   1.908712e+02  1.965565e+02  1.742719e+02
      vertex   1.904527e+02  1.594125e+02  1.401495e+02
      vertex   1.905379e+02  1.708166e+02  4.189608e+01
    endloop
  endfacet
  facet normal  9.999405e-01 -1.089941e-02 -3.983974e-04
    outer loop
      vertex   1.905379e+02  1.708166e+02  4.189608e+01
      vertex   1.904527e+02  1.594125e+02  1.401495e+02
      vertex   1.903821e+02  1.544475e+02  9.870126e+01
    endloop
  endfacet
  facet normal  9.999406e-01 -1.090020e-02 -3.986250e-04
    outer loop
      vertex   1.905379e+02  1.708166e+02  4.189608e+01
      vertex   1.903821e+02  1.544475e+02  9.870126e+01
      vertex   1.900370e+02  1.235558e+02  7.764857e+01
    endloop
  endfacet
  facet normal  9.999405e-01 -1.089881e-02 -3.967926e-04
    outer loop
      vertex   1.905379e+02  1.708166e+02  4.189608e+01
      vertex   1.900370e+02  1.235558e+02  7.764857e+01
      vertex   1.889302e+02  2.147683e+01  9.240421e+01
    endloop
  endfacet
  facet normal  9.999405e-01 -1.090095e-02 -4.116007e-04
    outer loop
      vertex   1.889302e+02  2.147683e+01  9.240421e+01
      vertex   1.900370e+02  1.235558e+02  7.764857e+01
      vertex   1.896539e+02  8.798408e+01  8.914466e+01
    endloop
  endfacet
  facet normal  9.999405e-01 -1.090041e-02 -4.004507e-04
    outer loop
      vertex   1.889302e+02  2.147683e+01  9.240421e+01
      vertex   1.896539e+02  8.798408e+01  8.914466e+01
      vertex   1.894862e+02  7.154347e+01  1.179251e+02
    endloop
  endfacet
  facet normal  9.999405e-01 -1.090202e-02 -3.972941e-04
    outer loop
      vertex   1.889302e+02  2.147683e+01  9.240421e+01
      vertex   1.894862e+02  7.154347e+01  1.179251e+02
      vertex   1.896807e+02  8.798379e+01  1.562956e+02
    endloop
  endfacet
  facet normal  9.292028e-01  2.505257e-01 -2.716964e-01
    outer loop
      vertex   1.889302e+02  2.147683e+01  9.240421e+01
      vertex   1.896807e+02  8.798379e+01  1.562956e+02
      vertex   1.985974e+02  1.220454e+02  2.181984e+02
    endloop
  endfacet
  facet normal  9.831799e-01  5.760397e-02 -1.733175e-01
    outer loop
      vertex   1.985974e+02  1.220454e+02  2.181984e+02
      vertex   1.896807e+02  8.798379e+01  1.562956e+02
      vertex   1.900215e+02  1.188094e+02  1.684741e+02
    endloop
  endfacet
  facet normal  9.854282e-01  1.913285e-03 -1.700810e-01
    outer loop
      vertex   1.985974e+02  1.220454e+02  2.181984e+02
      vertex   1.900215e+02  1.188094e+02  1.684741e+02
      vertex   1.908712e+02  1.965565e+02  1.742719e+02
    endloop
  endfacet
  facet normal  9.999405e-01 -1.089878e-02 -3.997078e-04
    outer loop
      vertex   1.908712e+02  1.965565e+02  1.742719e+02
      vertex   1.900215e+02  1.188094e+02  1.684741e+02
      vertex   1.904527e+02  1.594125e+02  1.401495e+02
    endloop
  endfacet
  facet normal  9.477957e-01  9.295996e-02  3.050276e-01
    outer loop
      vertex   2.020258e+02  6.023252e+01  3.990197e+01
      vertex   1.905379e+02  1.708166e+02  4.189608e+01
      vertex   1.889302e+02  2.147683e+01  9.240421e+01
    endloop
  endfacet
  facet normal -9.416277e-01  3.363876e-01  1.344329e-02
    outer loop
      vertex   1.889302e+02  2.147683e+01  9.240421e+01
      vertex   2.020199e+02  5.402102e+01  1.949212e+02
      vertex   2.020258e+02  6.023252e+01  3.990197e+01
    endloop
  endfacet
  facet normal -9.375134e-01 -1.033833e-01  3.322358e-01
    outer loop
      vertex   2.037264e+02  2.143184e+02  9.264846e+01
      vertex   1.905379e+02  1.708166e+02  4.189608e+01
      vertex   2.020258e+02  6.023252e+01  3.990197e+01
    endloop
  endfacet
  facet normal -9.999405e-01  1.089791e-02  3.963959e-04
    outer loop
      vertex   2.037264e+02  2.143184e+02  9.264846e+01
      vertex   2.030860e+02  1.548079e+02  1.132124e+02
      vertex   2.030216e+02  1.477426e+02  1.450980e+02
    endloop
  endfacet
  facet normal -9.956273e-01 -5.107736e-02 -7.821272e-02
    outer loop
      vertex   2.037264e+02  2.143184e+02  9.264846e+01
      vertex   2.030216e+02  1.477426e+02  1.450980e+02
      vertex   1.985974e+02  1.220454e+02  2.181984e+02
    endloop
  endfacet
  facet normal -9.969233e-01 -3.196029e-02 -7.157089e-02
    outer loop
      vertex   1.985974e+02  1.220454e+02  2.181984e+02
      vertex   2.030216e+02  1.477426e+02  1.450980e+02
      vertex   2.027261e+02  1.200245e+02  1.615924e+02
    endloop
  endfacet
  facet normal -9.970899e-01 -2.559355e-02 -7.181033e-02
    outer loop
      vertex   1.985974e+02  1.220454e+02  2.181984e+02
      vertex   2.027261e+02  1.200245e+02  1.615924e+02
      vertex   2.020199e+02  5.402102e+01  1.949212e+02
    endloop
  endfacet
  facet normal -9.999405e-01  1.089950e-02  3.990715e-04
    outer loop
      vertex   2.020199e+02  5.402102e+01  1.949212e+02
      vertex   2.027261e+02  1.200245e+02  1.615924e+02
      vertex   2.022730e+02  7.935383e+01  1.371295e+02
    endloop
  endfacet
  facet normal -9.999405e-01  1.089942e-02  3.990343e-04
    outer loop
      vertex   2.020199e+02  5.402102e+01  1.949212e+02
      vertex   2.022730e+02  7.935383e+01  1.371295e+02
      vertex   2.020258e+02  6.023252e+01  3.990197e+01
    endloop
  endfacet
  facet normal -9.999406e-01  1.090010e-02  3.988999e-04
    outer loop
      vertex   2.020258e+02  6.023252e+01  3.990197e+01
      vertex   2.022730e+02  7.935383e+01  1.371295e+02
      vertex   2.024012e+02  9.275039e+01  9.243870e+01
    endloop
  endfacet
  facet normal -9.999406e-01  1.089905e-02  3.995530e-04
    outer loop
      vertex   2.020258e+02  6.023252e+01  3.990197e+01
      vertex   2.024012e+02  9.275039e+01  9.243870e+01
      vertex   2.027907e+02  1.287041e+02  8.649896e+01
    endloop
  endfacet
  facet normal -9.999405e-01  1.089999e-02  3.981635e-04
    outer loop
      vertex   2.020258e+02  6.023252e+01  3.990197e+01
      vertex   2.027907e+02  1.287041e+02  8.649896e+01
      vertex   2.037264e+02  2.143184e+02  9.264846e+01
    endloop
  endfacet
  facet normal -9.999405e-01  1.089974e-02  4.016925e-04
    outer loop
      vertex   2.037264e+02  2.143184e+02  9.264846e+01
      vertex   2.027907e+02  1.287041e+02  8.649896e+01
      vertex   2.030860e+02  1.548079e+02  1.132124e+02
    endloop
  endfacet
  facet normal  9.300310e-01 -3.611568e-01  6.788331e-02
    outer loop
      vertex   2.037264e+02  2.143184e+02  9.264846e+01
      vertex   1.908712e+02  1.965565e+02  1.742719e+02
      vertex   1.905379e+02  1.708166e+02  4.189608e+01
    endloop
  endfacet
  facet normal  9.819531e-01  1.035571e-01 -1.582533e-01
    outer loop
      vertex   1.985974e+02  1.220454e+02  2.181984e+02
      vertex   2.020199e+02  5.402102e+01  1.949212e+02
      vertex   1.889302e+02  2.147683e+01  9.240421e+01
    endloop
  endfacet
  facet normal -9.562925e-01 -2.156090e-01 -1.975285e-01
    outer loop
      vertex   1.985974e+02  1.220454e+02  2.181984e+02
      vertex   1.908712e+02  1.965565e+02  1.742719e+02
      vertex   2.037264e+02  2.143184e+02  9.264846e+01
    endloop
  endfacet
  facet normal -9.999380e-01  1.113394e-02  3.913667e-04
    outer loop
      vertex  -6.109688e+00  1.074450e+02  8.658216e+01
      vertex  -6.071649e+00  1.083028e+02  1.593680e+02
      vertex  -5.544518e+00  1.564213e+02  1.372644e+02
    endloop
  endfacet
  facet normal -9.999365e-01  1.126253e-02  3.898505e-04
    outer loop
      vertex  -6.109688e+00  1.074450e+02  8.658216e+01
      vertex  -6.370247e+00  8.356460e+01  1.081585e+02
      vertex  -6.071649e+00  1.083028e+02  1.593680e+02
    endloop
  endfacet
  facet normal -9.999366e-01  1.125433e-02  3.938088e-04
    outer loop
      vertex  -6.071649e+00  1.083028e+02  1.593680e+02
      vertex  -6.370247e+00  8.356460e+01  1.081585e+02
      vertex  -6.301175e+00  8.840607e+01  1.451812e+02
    endloop
  endfacet
  facet normal -5.669641e-01 -9.687976e-02 -8.180256e-01
    outer loop
      vertex  -6.331700e+00  9.152382e+01  1.527322e+01
      vertex  -4.439492e+00  2.388591e+02 -3.487341e+00
      vertex   2.957767e+01  1.134828e+02 -1.221578e+01
    endloop
  endfacet
  facet normal  3.819750e-02  7.970925e-02 -9.960861e-01
    outer loop
      vertex   1.192911e+02  1.108777e+02 -8.983959e+00
      vertex   2.957767e+01  1.134828e+02 -1.221578e+01
      vertex  -4.439492e+00  2.388591e+02 -3.487341e+00
    endloop
  endfacet
  facet normal -9.995025e-01  1.627626e-02  2.701411e-02
    outer loop
      vertex  -4.439492e+00  2.388591e+02 -3.487341e+00
      vertex  -6.331700e+00  9.152382e+01  1.527322e+01
      vertex  -1.537623e+00  2.482736e+02  9.820736e+01
    endloop
  endfacet
  facet normal -9.994385e-01  2.032538e-02  2.663743e-02
    outer loop
      vertex  -4.439492e+00  2.388591e+02 -3.487341e+00
      vertex  -1.537623e+00  2.482736e+02  9.820736e+01
      vertex  -3.308639e+00  3.029851e+02 -9.988249e+00
    endloop
  endfacet
  facet normal  3.449705e-02 -1.014022e-01 -9.942472e-01
    outer loop
      vertex  -4.439492e+00  2.388591e+02 -3.487341e+00
      vertex  -3.308639e+00  3.029851e+02 -9.988249e+00
      vertex   1.688461e+02  3.464551e+02 -8.448515e+00
    endloop
  endfacet
  facet normal -3.453244e-02  9.535532e-03 -9.993581e-01
    outer loop
      vertex   1.192911e+02  1.108777e+02 -8.983959e+00
      vertex  -4.439492e+00  2.388591e+02 -3.487341e+00
      vertex   1.688461e+02  3.464551e+02 -8.448515e+00
    endloop
  endfacet
  facet normal  6.696073e-03  8.899875e-03 -9.999380e-01
    outer loop
      vertex  -3.308639e+00  3.029851e+02 -9.988249e+00
      vertex  -2.263327e+00  4.514716e+02 -8.659656e+00
      vertex   1.688461e+02  3.464551e+02 -8.448515e+00
    endloop
  endfacet
  facet normal -9.997797e-01  6.860757e-03  1.983434e-02
    outer loop
      vertex  -3.308639e+00  3.029851e+02 -9.988249e+00
      vertex  -1.537623e+00  2.482736e+02  9.820736e+01
      vertex  -2.263327e+00  4.514716e+02 -8.659656e+00
    endloop
  endfacet
  facet normal  4.635221e-03  9.999526e-01  8.564520e-03
    outer loop
      vertex  -2.263327e+00  4.514716e+02 -8.659656e+00
      vertex  -2.352489e+00  4.505005e+02  1.047767e+02
      vertex   2.237219e+02  4.493980e+02  1.111426e+02
    endloop
  endfacet
  facet normal -9.999917e-01 -4.002788e-03 -8.202743e-04
    outer loop
      vertex  -2.263327e+00  4.514716e+02 -8.659656e+00
      vertex  -1.537623e+00  2.482736e+02  9.820736e+01
      vertex  -2.352489e+00  4.505005e+02  1.047767e+02
    endloop
  endfacet
  facet normal  1.058789e-02  1.524126e-02 -9.998277e-01
    outer loop
      vertex   1.688461e+02  3.464551e+02 -8.448515e+00
      vertex  -2.263327e+00  4.514716e+02 -8.659656e+00
      vertex   2.367610e+02  4.532527e+02 -6.101305e+00
    endloop
  endfacet
  facet normal  4.619753e-03  9.999478e-01  9.113045e-03
    outer loop
      vertex  -2.352489e+00  4.505005e+02  1.047767e+02
      vertex  -2.328954e+00  4.496039e+02  2.031368e+02
      vertex   2.237219e+02  4.493980e+02  1.111426e+02
    endloop
  endfacet
  facet normal  9.288988e-03  9.997450e-01  2.058689e-02
    outer loop
      vertex  -2.328954e+00  4.496039e+02  2.031368e+02
      vertex   7.663377e+01  4.472884e+02  2.799564e+02
      vertex   2.237219e+02  4.493980e+02  1.111426e+02
    endloop
  endfacet
  facet normal -7.789799e-03  9.994577e-01  3.199350e-02
    outer loop
      vertex   2.237219e+02  4.493980e+02  1.111426e+02
      vertex   2.367610e+02  4.532527e+02 -6.101305e+00
      vertex  -2.263327e+00  4.514716e+02 -8.659656e+00
    endloop
  endfacet
  facet normal  9.059803e-03  8.210739e-03  9.999253e-01
    outer loop
      vertex   4.282234e-01  4.473103e+02  4.906558e+02
      vertex   1.267298e+01  2.384187e+02  4.922601e+02
      vertex   2.394670e+02  3.294779e+02  4.894576e+02
    endloop
  endfacet
  facet normal -1.217319e-02 -2.050120e-02  9.997157e-01
    outer loop
      vertex  -5.570289e+00  1.088336e+02  4.893806e+02
      vertex   2.324972e+02  7.139174e+01  4.915116e+02
      vertex   1.267298e+01  2.384187e+02  4.922601e+02
    endloop
  endfacet
  facet normal -9.981460e-01 -5.863446e-02 -1.632427e-02
    outer loop
      vertex   1.267298e+01  2.384187e+02  4.922601e+02
      vertex   4.282234e-01  4.473103e+02  4.906558e+02
      vertex   2.934587e+00  4.207496e+02  4.328070e+02
    endloop
  endfacet
  facet normal -9.132826e-01  1.199238e-01  3.892727e-01
    outer loop
      vertex   1.267298e+01  2.384187e+02  4.922601e+02
      vertex   3.498407e+00  2.918346e+02  4.542795e+02
      vertex  -5.570289e+00  1.088336e+02  4.893806e+02
    endloop
  endfacet
  facet normal  9.261607e-03  7.708186e-03  9.999274e-01
    outer loop
      vertex   2.394670e+02  3.294779e+02  4.894576e+02
      vertex   1.267298e+01  2.384187e+02  4.922601e+02
      vertex   2.324972e+02  7.139174e+01  4.915116e+02
    endloop
  endfacet
  facet normal  1.771584e-02  9.996157e-01  2.132303e-02
    outer loop
      vertex   4.282234e-01  4.473103e+02  4.906558e+02
      vertex   2.347170e+02  4.431936e+02  4.889907e+02
      vertex   2.163298e+02  4.477078e+02  2.926466e+02
    endloop
  endfacet
  facet normal  9.948866e-01  4.117863e-02 -9.222220e-02
    outer loop
      vertex   2.163298e+02  4.477078e+02  2.926466e+02
      vertex   2.347170e+02  4.431936e+02  4.889907e+02
      vertex   2.394670e+02  3.294779e+02  4.894576e+02
    endloop
  endfacet
  facet normal  9.911308e-01 -2.370534e-02 -1.307583e-01
    outer loop
      vertex   2.394670e+02  3.294779e+02  4.894576e+02
      vertex   2.173391e+02  1.067009e+02  3.621182e+02
      vertex   2.163298e+02  4.477078e+02  2.926466e+02
    endloop
  endfacet
  facet normal -9.999407e-01  1.088483e-02  3.883419e-04
    outer loop
      vertex  -5.646355e+00  1.390875e+02  3.599289e+02
      vertex  -6.167035e+00  9.186698e+01  3.427748e+02
      vertex  -5.729887e+00  1.296580e+02  4.091416e+02
    endloop
  endfacet
  facet normal -5.216940e-02  9.984580e-01 -1.897255e-02
    outer loop
      vertex   4.282234e-01  4.473103e+02  4.906558e+02
      vertex   7.663377e+01  4.472884e+02  2.799564e+02
      vertex   3.958380e+00  4.441204e+02  3.130735e+02
    endloop
  endfacet
  facet normal -2.897367e-03  9.999952e-01 -1.152056e-03
    outer loop
      vertex   7.663377e+01  4.472884e+02  2.799564e+02
      vertex   4.282234e-01  4.473103e+02  4.906558e+02
      vertex   2.163298e+02  4.477078e+02  2.926466e+02
    endloop
  endfacet
  facet normal  9.919210e-01 -2.777275e-02 -1.237798e-01
    outer loop
      vertex   2.173391e+02  1.067009e+02  3.621182e+02
      vertex   2.394670e+02  3.294779e+02  4.894576e+02
      vertex   2.324972e+02  7.139174e+01  4.915116e+02
    endloop
  endfacet
  facet normal -1.340815e-01 -9.909013e-01  1.169590e-02
    outer loop
      vertex   2.186532e+02 -1.975315e+00  2.745561e+02
      vertex   2.277213e+02 -1.649744e+00  4.060955e+02
      vertex   1.368676e+02  9.910205e+00  3.439344e+02
    endloop
  endfacet
  facet normal  9.953483e-01  6.745650e-02 -6.878445e-02
    outer loop
      vertex   2.186532e+02 -1.975315e+00  2.745561e+02
      vertex   2.173391e+02  1.067009e+02  3.621182e+02
      vertex   2.277213e+02 -1.649744e+00  4.060955e+02
    endloop
  endfacet
  facet normal -2.285851e-02 -9.987174e-01 -4.517711e-02
    outer loop
      vertex  -4.410719e+00  3.882629e+00  4.012460e+02
      vertex   2.277213e+02 -1.649744e+00  4.060955e+02
      vertex  -5.496338e+00  1.656006e-01  4.839666e+02
    endloop
  endfacet
  facet normal -1.676574e-02 -4.976442e-02  9.986203e-01
    outer loop
      vertex  -5.496338e+00  1.656006e-01  4.839666e+02
      vertex   2.324972e+02  7.139174e+01  4.915116e+02
      vertex  -5.570289e+00  1.088336e+02  4.893806e+02
    endloop
  endfacet
  facet normal  1.330018e-02 -9.973084e-01 -7.210286e-02
    outer loop
      vertex  -4.410719e+00  3.882629e+00  4.012460e+02
      vertex  -6.024881e+00  1.090548e+01  3.038099e+02
      vertex   1.368676e+02  9.910205e+00  3.439344e+02
    endloop
  endfacet
  facet normal -2.040814e-02 -9.993034e-01  3.124507e-02
    outer loop
      vertex  -6.024881e+00  1.090548e+01  3.038099e+02
      vertex  -4.358746e+00  4.973926e+00  1.151905e+02
      vertex   1.262661e+02  2.550407e+00  1.229991e+02
    endloop
  endfacet
  facet normal -9.997515e-01 -2.073546e-02 -8.179056e-03
    outer loop
      vertex  -6.441549e+00  6.988161e+01  2.052247e+02
      vertex  -4.358746e+00  4.973926e+00  1.151905e+02
      vertex  -6.024881e+00  1.090548e+01  3.038099e+02
    endloop
  endfacet
  facet normal  2.043757e-01 -7.495871e-01  6.295633e-01
    outer loop
      vertex  -5.496338e+00  1.656006e-01  4.839666e+02
      vertex   2.277213e+02 -1.649744e+00  4.060955e+02
      vertex   2.324972e+02  7.139174e+01  4.915116e+02
    endloop
  endfacet
  facet normal  9.933572e-01  5.392446e-02 -1.016544e-01
    outer loop
      vertex   2.173391e+02  1.067009e+02  3.621182e+02
      vertex   2.324972e+02  7.139174e+01  4.915116e+02
      vertex   2.277213e+02 -1.649744e+00  4.060955e+02
    endloop
  endfacet
  facet normal -2.032630e-02 -9.878615e-01 -1.540018e-01
    outer loop
      vertex  -4.410719e+00  3.882629e+00  4.012460e+02
      vertex   1.368676e+02  9.910205e+00  3.439344e+02
      vertex   2.277213e+02 -1.649744e+00  4.060955e+02
    endloop
  endfacet
  facet normal -1.117005e-01 -9.929982e-01  3.843868e-02
    outer loop
      vertex   1.368676e+02  9.910205e+00  3.439344e+02
      vertex   1.262661e+02  2.550407e+00  1.229991e+02
      vertex   2.186532e+02 -1.975315e+00  2.745561e+02
    endloop
  endfacet
  facet normal -2.030138e-02  9.984940e-01  5.096506e-02
    outer loop
      vertex   7.663377e+01  4.472884e+02  2.799564e+02
      vertex  -2.328954e+00  4.496039e+02  2.031368e+02
      vertex   3.958380e+00  4.441204e+02  3.130735e+02
    endloop
  endfacet
  facet normal -9.999384e-01  1.108747e-02  4.362841e-04
    outer loop
      vertex  -5.544518e+00  1.564213e+02  1.372644e+02
      vertex  -5.665446e+00  1.470842e+02  9.739410e+01
      vertex  -6.109688e+00  1.074450e+02  8.658216e+01
    endloop
  endfacet
  facet normal -1.801922e-01 -9.698924e-01 -1.638279e-01
    outer loop
      vertex   1.074844e+02  2.652371e+01  1.730239e+00
      vertex   2.338744e+02  3.912910e+00 -3.424162e+00
      vertex   1.262661e+02  2.550407e+00  1.229991e+02
    endloop
  endfacet
  facet normal -6.140758e-02 -1.173016e-01 -9.911959e-01
    outer loop
      vertex   2.338744e+02  3.912910e+00 -3.424162e+00
      vertex   1.074844e+02  2.652371e+01  1.730239e+00
      vertex   1.192911e+02  1.108777e+02 -8.983959e+00
    endloop
  endfacet
  facet normal -1.653035e-02 -9.992824e-01  3.408130e-02
    outer loop
      vertex   1.262661e+02  2.550407e+00  1.229991e+02
      vertex   1.368676e+02  9.910205e+00  3.439344e+02
      vertex  -6.024881e+00  1.090548e+01  3.038099e+02
    endloop
  endfacet
  facet normal -1.306032e-02 -9.996750e-01 -2.189043e-02
    outer loop
      vertex   2.186532e+02 -1.975315e+00  2.745561e+02
      vertex   1.262661e+02  2.550407e+00  1.229991e+02
      vertex   2.338744e+02  3.912910e+00 -3.424162e+00
    endloop
  endfacet
  facet normal  4.229232e-02 -6.625605e-03 -9.990833e-01
    outer loop
      vertex   1.192911e+02  1.108777e+02 -8.983959e+00
      vertex   1.688461e+02  3.464551e+02 -8.448515e+00
      vertex   2.338744e+02  3.912910e+00 -3.424162e+00
    endloop
  endfacet
  facet normal  9.935227e-01 -6.533107e-03  1.134457e-01
    outer loop
      vertex   2.237219e+02  4.493980e+02  1.111426e+02
      vertex   2.125237e+02  1.072031e+02  1.895067e+02
      vertex   2.338744e+02  3.912910e+00 -3.424162e+00
    endloop
  endfacet
  facet normal  9.934024e-01  9.979121e-02  5.650907e-02
    outer loop
      vertex   2.125237e+02  1.072031e+02  1.895067e+02
      vertex   2.186532e+02 -1.975315e+00  2.745561e+02
      vertex   2.338744e+02  3.912910e+00 -3.424162e+00
    endloop
  endfacet
  facet normal  9.990204e-01  3.445430e-02 -2.776922e-02
    outer loop
      vertex   2.173391e+02  1.067009e+02  3.621182e+02
      vertex   2.186532e+02 -1.975315e+00  2.745561e+02
      vertex   2.125237e+02  1.072031e+02  1.895067e+02
    endloop
  endfacet
  facet normal -3.833609e-03  9.999507e-01  9.155689e-03
    outer loop
      vertex   2.237219e+02  4.493980e+02  1.111426e+02
      vertex   7.663377e+01  4.472884e+02  2.799564e+02
      vertex   2.163298e+02  4.477078e+02  2.926466e+02
    endloop
  endfacet
  facet normal  9.996072e-01 -2.724204e-03 -2.789377e-02
    outer loop
      vertex   2.173391e+02  1.067009e+02  3.621182e+02
      vertex   2.125237e+02  1.072031e+02  1.895067e+02
      vertex   2.163298e+02  4.477078e+02  2.926466e+02
    endloop
  endfacet
  facet normal  9.938769e-01 -5.727395e-03  1.103441e-01
    outer loop
      vertex   2.237219e+02  4.493980e+02  1.111426e+02
      vertex   2.338744e+02  3.912910e+00 -3.424162e+00
      vertex   2.367610e+02  4.532527e+02 -6.101305e+00
    endloop
  endfacet
  facet normal  9.989064e-01 -2.342230e-02  4.046446e-02
    outer loop
      vertex   2.163298e+02  4.477078e+02  2.926466e+02
      vertex   2.125237e+02  1.072031e+02  1.895067e+02
      vertex   2.237219e+02  4.493980e+02  1.111426e+02
    endloop
  endfacet
  facet normal  4.433383e-02 -6.236783e-03 -9.989973e-01
    outer loop
      vertex   2.367610e+02  4.532527e+02 -6.101305e+00
      vertex   2.338744e+02  3.912910e+00 -3.424162e+00
      vertex   1.688461e+02  3.464551e+02 -8.448515e+00
    endloop
  endfacet
  facet normal -6.692669e-01  1.979089e-01 -7.161800e-01
    outer loop
      vertex  -6.959802e+00  2.453859e+01 -2.650487e+00
      vertex  -6.331700e+00  9.152382e+01  1.527322e+01
      vertex   2.957767e+01  1.134828e+02 -1.221578e+01
    endloop
  endfacet
  facet normal  3.191341e-02 -1.303329e-01 -9.909565e-01
    outer loop
      vertex   1.074844e+02  2.652371e+01  1.730239e+00
      vertex   2.957767e+01  1.134828e+02 -1.221578e+01
      vertex   1.192911e+02  1.108777e+02 -8.983959e+00
    endloop
  endfacet
  facet normal -8.523161e-03 -9.864908e-01 -1.635949e-01
    outer loop
      vertex   1.262661e+02  2.550407e+00  1.229991e+02
      vertex  -4.358746e+00  4.973926e+00  1.151905e+02
      vertex  -6.959802e+00  2.453859e+01 -2.650487e+00
    endloop
  endfacet
  facet normal -9.997386e-01  3.322113e-03  2.261838e-02
    outer loop
      vertex  -6.331700e+00  9.152382e+01  1.527322e+01
      vertex  -6.959802e+00  2.453859e+01 -2.650487e+00
      vertex  -4.358746e+00  4.973926e+00  1.151905e+02
    endloop
  endfacet
  facet normal  2.455997e-02 -9.799882e-01 -1.975349e-01
    outer loop
      vertex   1.262661e+02  2.550407e+00  1.229991e+02
      vertex  -6.959802e+00  2.453859e+01 -2.650487e+00
      vertex   1.074844e+02  2.652371e+01  1.730239e+00
    endloop
  endfacet
  facet normal  4.009146e-02 -1.231067e-01 -9.915832e-01
    outer loop
      vertex   1.074844e+02  2.652371e+01  1.730239e+00
      vertex  -6.959802e+00  2.453859e+01 -2.650487e+00
      vertex   2.957767e+01  1.134828e+02 -1.221578e+01
    endloop
  endfacet
  facet normal -9.999393e-01  1.100948e-02  4.086969e-04
    outer loop
      vertex  -3.273494e+00  3.675212e+02  1.012373e+02
      vertex  -3.222262e+00  3.698232e+02  1.645707e+02
      vertex  -3.095895e+00  3.824804e+02  1.327880e+02
    endloop
  endfacet
  facet normal -9.974936e-01  3.906234e-02  5.899551e-02
    outer loop
      vertex  -3.441650e+00  2.701197e+02  3.031642e+02
      vertex   3.958380e+00  4.441204e+02  3.130735e+02
      vertex  -2.328954e+00  4.496039e+02  2.031368e+02
    endloop
  endfacet
  facet normal  7.184063e-03  4.405153e-03  9.999645e-01
    outer loop
      vertex   2.347170e+02  4.431936e+02  4.889907e+02
      vertex   4.282234e-01  4.473103e+02  4.906558e+02
      vertex   2.394670e+02  3.294779e+02  4.894576e+02
    endloop
  endfacet
endsolid vcg
