solid OpenSCAD_Model
  facet normal -0 0 1
    outer loop
      vertex -210 100 100
      vertex -10 -100 100
      vertex -10 100 100
    endloop
  endfacet
  facet normal 0 0 1
    outer loop
      vertex -10 -100 100
      vertex -210 100 100
      vertex -210 -100 100
    endloop
  endfacet
  facet normal 0 0 -1
    outer loop
      vertex -210 -100 -100
      vertex -10 100 -100
      vertex -10 -100 -100
    endloop
  endfacet
  facet normal -0 0 -1
    outer loop
      vertex -10 100 -100
      vertex -210 -100 -100
      vertex -210 100 -100
    endloop
  endfacet
  facet normal 0 -1 0
    outer loop
      vertex -210 -100 -100
      vertex -10 -100 100
      vertex -210 -100 100
    endloop
  endfacet
  facet normal 0 -1 -0
    outer loop
      vertex -10 -100 100
      vertex -210 -100 -100
      vertex -10 -100 -100
    endloop
  endfacet
  facet normal -1 0 0
    outer loop
      vertex -210 -100 -100
      vertex -210 100 100
      vertex -210 100 -100
    endloop
  endfacet
  facet normal -1 -0 0
    outer loop
      vertex -210 100 100
      vertex -210 -100 -100
      vertex -210 -100 100
    endloop
  endfacet
  facet normal 0 1 -0
    outer loop
      vertex -10 100 -100
      vertex -210 100 100
      vertex -10 100 100
    endloop
  endfacet
  facet normal 0 1 0
    outer loop
      vertex -210 100 100
      vertex -10 100 -100
      vertex -210 100 -100
    endloop
  endfacet
  facet normal 1 -0 0
    outer loop
      vertex -10 -100 100
      vertex -10 100 -100
      vertex -10 100 100
    endloop
  endfacet
  facet normal 1 0 0
    outer loop
      vertex -10 100 -100
      vertex -10 -100 100
      vertex -10 -100 -100
    endloop
  endfacet
endsolid OpenSCAD_Model
